<?xml version="1.0" encoding="utf-8"?>
<!-- Generator: Adobe Illustrator 16.0.0, SVG Export Plug-In . SVG Version: 6.00 Build 0)  -->
<!DOCTYPE svg PUBLIC "-//W3C//DTD SVG 1.1//EN" "http://www.w3.org/Graphics/SVG/1.1/DTD/svg11.dtd">
<svg version="1.1" id="Layer_1" xmlns="http://www.w3.org/2000/svg" xmlns:xlink="http://www.w3.org/1999/xlink" x="0px" y="0px"
	 width="608.3px" height="66.6px" viewBox="1.8 0 608.3 66.6" style="enable-background:new 1.8 0 608.3 66.6;"
	 xml:space="preserve">
<style type="text/css">
<![CDATA[
	.st0{fill:#FFFFFF;}
]]>
</style>
<g>
	<g>
		<g>
			<path class="st0" d="M1.8,8.4c0-3.8,3.1-6.9,6.9-6.9h1.4c3.4,0,5.4,1.5,7,4.1l26.5,34.7V8.3c0-3.7,3.1-6.7,6.7-6.7
				s6.7,3.1,6.7,6.7v49.6c0,3.8-3.1,6.9-6.9,6.9h-0.5c-3.4,0-5.4-1.5-7-4.1L15.3,24.8v33.4c0,3.7-3.1,6.7-6.7,6.7
				c-3.7,0-6.7-3.1-6.7-6.7V8.4L1.8,8.4z"/>
		</g>
		<g>
			<path class="st0" d="M62.9,40.9v-0.2c0-13.8,11.2-24.9,26-24.9s25.7,11,25.7,24.8v0.2c0,13.8-11.2,24.9-26,24.9
				S62.9,54.6,62.9,40.9z M101.3,40.9v-0.2c0-7-5-13.3-12.5-13.3c-7.8,0-12.4,6-12.4,13v0.2c0,7,5,13.3,12.5,13.3
				C96.7,53.9,101.3,47.9,101.3,40.9z"/>
		</g>
		<g>
			<path class="st0" d="M117,59.8c-1.4-0.9-2.6-2.4-2.6-4.6c0-3.1,2.3-5.4,5.4-5.4c1.1,0,2,0.3,2.6,0.8c4.6,2.8,9,4.3,12.9,4.3
				s5.7-1.4,5.7-3.5v-0.2c0-3.1-4.6-3.8-9.9-5.5c-6.7-2-14.2-5-14.2-14.2v-0.2c0-9.6,7.8-15.1,17.4-15.1c4.9,0,10.3,1.4,14.8,3.7
				c2,1.1,3.2,2.8,3.2,5c0,3.1-2.4,5.4-5.5,5.4c-1.1,0-1.5-0.2-2.4-0.8c-3.8-2-7.3-3.1-10.4-3.1c-3.4,0-4.9,1.4-4.9,3.4V30
				c0,2.6,4.6,3.8,9.6,5.7c6.7,2.3,14.5,5.5,14.5,14.1v0.2c0,10.6-8,15.3-18.2,15.3C129.3,65.3,123,63.5,117,59.8z"/>
		</g>
		<g>
			<path class="st0" d="M157.6,59.8c-1.4-0.9-2.6-2.4-2.6-4.6c0-3.1,2.3-5.4,5.4-5.4c1.1,0,2,0.3,2.6,0.8c4.6,2.8,9,4.3,12.9,4.3
				s5.7-1.4,5.7-3.5v-0.2c0-3.1-4.6-3.8-9.9-5.5c-6.7-2-14.2-5-14.2-14.2v-0.2c0-9.6,7.8-15.1,17.4-15.1c4.9,0,10.3,1.4,14.8,3.7
				c2,1.1,3.2,2.8,3.2,5c0,3.1-2.4,5.4-5.5,5.4c-1.1,0-1.5-0.2-2.4-0.8c-3.8-2-7.3-3.1-10.4-3.1c-3.4,0-4.9,1.4-4.9,3.4V30
				c0,2.6,4.6,3.8,9.6,5.7c6.7,2.3,14.5,5.5,14.5,14.1v0.2c0,10.6-8,15.3-18.2,15.3C169.5,65.3,163.4,63.5,157.6,59.8z"/>
		</g>
		<g>
			<path class="st0" d="M195.1,40.9v-0.2c0-13.8,11.2-24.9,26-24.9s25.7,10.9,25.7,24.6v0.2c0,13.8-11.2,24.9-26,24.9
				C205.9,65.5,195.1,54.6,195.1,40.9z M233.5,40.9v-0.2c0-7-5-13.3-12.5-13.3c-7.8,0-12.4,6-12.4,13v0.2c0,7,5,13.3,12.5,13.3
				C228.9,53.9,233.5,47.9,233.5,40.9z"/>
		</g>
	</g>
	<g>
		<path class="st0" d="M252.1,34.4v-0.2c0-17.6,13.8-32.3,32.6-32.3c9.3,0,15.8,2.1,21.4,6c1.4,1.1,2.8,2.8,2.8,5.5
			c0,3.7-3.1,6.7-6.7,6.7c-2,0-3.2-0.8-4.3-1.4c-3.7-2.6-7.8-4.3-13.6-4.3c-9.9,0-17.6,8.7-17.6,19.4v0.2c0,11.5,7.8,19.7,18.8,19.7
			c4.9,0,9.3-1.2,12.9-3.7v-8.9h-9.2c-3.4,0-6-2.6-6-5.8c0-3.4,2.6-6,6-6h15.8c3.8,0,6.9,3.1,6.9,6.9v15.1c0,4.1-1.5,6.7-4.7,8.7
			c-5,3.2-12.5,6.1-21.9,6.1C265.6,66.6,252.1,52.9,252.1,34.4z"/>
	</g>
	<g>
		<path class="st0" d="M315.2,51.7v-0.2c0-10.4,8-15.1,19.3-15.1c4.7,0,8.3,0.9,11.6,2v-0.9c0-5.7-3.5-8.7-10.3-8.7
			c-3.7,0-6.7,0.5-9.3,1.4c-0.9,0.3-1.4,0.3-2,0.3c-3.2,0-5.7-2.4-5.7-5.5c0-2.4,1.5-4.4,3.7-5.4c4.3-1.5,8.9-2.4,15.1-2.4
			c7.3,0,12.7,2,16.1,5.4c3.5,3.5,5,8.9,5,15.1v21.6c0,3.7-3.1,6.6-6.6,6.6c-3.8,0-6.6-2.8-6.6-5.7V60c-3.4,3.7-7.8,6-14.5,6
			C322.5,66.4,315.2,61,315.2,51.7z M346.2,48.5c0,0,0.2-1.8-0.5-2.4c-0.9-1.1-4.7-1.8-8.1-1.8c-5.8,0-9.3,2.3-9.3,6.6v0.2
			c0,3.7,3.1,5.8,7.3,5.8C342,57.1,346.2,53.4,346.2,48.5z"/>
	</g>
	<g>
		<path class="st0" d="M365.4,6.7c0-3.7,3.1-6.7,6.7-6.7s6.7,3.1,6.7,6.7v17.7c3.4-4.4,7.8-7.8,14.8-7.8c11.2,0,21.7,8.7,21.7,24.8
			v0.2c0,15.9-10.4,24.8-21.7,24.8c-7.2,0-11.6-3.4-14.8-7v0.2c0,3.7-3.1,6.7-6.7,6.7s-6.7-3.1-6.7-6.7V6.7z M403.6,43.8v-0.2
			c0.9-8-3.8-13.6-10.3-14.2c-6.4-0.8-11.9,4.1-12.9,11.9v0.2c-0.9,8,3.8,13.6,10.3,14.2C396.9,56.3,402.7,51.7,403.6,43.8z"/>
	</g>
	<g>
		<path class="st0" d="M419.8,24c0-3.7,3.1-6.7,6.7-6.7c3.7,0,6.7,3.1,6.7,6.7v35.2c0,3.7-3.1,6.7-6.7,6.7c-3.7,0-6.7-3.1-6.7-6.7
			V24z"/>
	</g>
	<g>
		<path class="st0" d="M440.2,24c0-3.7,3.1-6.7,6.7-6.7s6.7,3.1,6.7,6.7v0.5c3.2-4.1,7-7.6,13.9-7.6c10.3,0,16.2,6.7,16.2,17.6v24.8
			c0,3.7-3.1,6.7-6.7,6.7c-3.7,0-6.7-3.1-6.7-6.7V38.9c0-6.4-3.1-9.6-8.1-9.6s-8.4,3.4-8.4,9.6v20.3c0,3.7-3.1,6.7-6.7,6.7
			s-6.7-3.1-6.7-6.7V24H440.2z"/>
	</g>
	<g>
		<path class="st0" d="M512.7,66.6c-14.2,0-24.9-10.1-24.9-24.8v-0.2c0-13.6,9.6-24.9,23.7-24.9c15.9,0,23,13,23,22.9
			c0,3.8-2.8,6.6-6.4,6.6h-26.8c1.4,6.1,5.7,9.3,11.6,9.3c3.7,0,6.9-1.2,9.6-3.2c1.1-0.8,2-1.1,3.4-1.1c3.1,0,5.4,2.3,5.4,5.4
			c0,1.8-0.9,3.2-1.8,4.1C525.1,64.1,519.6,66.6,512.7,66.6z M521.6,37.8c-0.9-6-4.4-10.3-10.1-10.3c-5.7,0-9.2,4.1-10.4,10.3H521.6
			z"/>
	</g>
	<g>
		<path class="st0" d="M538.6,17.6v-6c0-3.7,3.1-6.7,6.7-6.7S552,8,552,11.6v6h6c3.2,0,5.8,2.6,5.8,5.8s-2.6,5.8-5.8,5.8h-6v20.5
			c0,3.2,1.4,4.6,4.4,4.6c0.5,0,1.4-0.2,1.5-0.2c3.1,0,5.7,2.4,5.7,5.7c0,2.4-1.5,4.4-3.5,5c-2.4,1.1-4.7,1.4-7.8,1.4
			c-8.3,0-13.9-3.4-13.9-14.2V29.5L538.6,17.6L538.6,17.6z"/>
	</g>
	<g>
		<path class="st0" d="M588.4,66.6c-14.2,0-24.9-10.1-24.9-24.8v-0.2c0-13.6,9.6-24.9,23.7-24.9c15.9,0,23,13,23,22.9
			c0,3.8-2.8,6.6-6.4,6.6H577c1.4,6.1,5.7,9.3,11.6,9.3c3.7,0,6.9-1.2,9.6-3.2c1.1-0.8,2-1.1,3.4-1.1c3.1,0,5.4,2.3,5.4,5.4
			c0,1.8-0.9,3.2-1.8,4.1C600.8,64.1,595.3,66.6,588.4,66.6z M597.2,37.8c-0.9-6-4.4-10.3-10.1-10.3c-5.7,0-9.2,4.1-10.4,10.3H597.2
			z"/>
	</g>
	<g>
		<path class="st0" d="M426.4,0.8c4.3,0,7.2,2.8,7.2,6.6v0.2c0,3.7-3.2,6.6-7.2,6.6c-4.1,0-7.2-2.8-7.2-6.6V7.3
			C418.9,3.7,422.1,0.8,426.4,0.8z"/>
	</g>
</g>
</svg>
