<!-- Generator: Avocode undefined - http://avocode.com -->
<svg height="24" width="18" xmlns:xlink="http://www.w3.org/1999/xlink" xmlns="http://www.w3.org/2000/svg" viewBox="0 0 18 24">
    <path fill="#ffffff" fill-rule="evenodd" d="M 14.84 12.02 C 13.55 13.59 12.25 15.15 10.95 16.72 C 10.95 11.75 10.95 6.79 10.95 1.82 C 10.95 -0.64 7.13 -0.64 7.13 1.82 C 7.13 6.83 7.13 11.83 7.13 16.83 C 5.8 15.23 4.47 13.62 3.14 12.02 C 1.58 10.12 -1.1 12.84 0.45 14.71 C 2.73 17.47 5.02 20.23 7.31 22.99 C 7.58 23.57 8.13 24.01 8.95 24.01 C 8.98 24.01 9.01 24.01 9.04 24.01 C 9.85 24.01 10.4 23.58 10.68 23.01 C 12.96 20.24 15.25 17.48 17.54 14.71 C 19.1 12.83 16.42 10.12 14.84 12.02 Z" />
</svg>