<!-- Generator: Avocode undefined - http://avocode.com -->
<svg height="5" width="9" xmlns:xlink="http://www.w3.org/1999/xlink" xmlns="http://www.w3.org/2000/svg" viewBox="0 0 9 5">
    <path fill="#ffffff" fill-rule="evenodd" d="M 8.9 4.66 C 8.9 4.66 8.66 4.9 8.66 4.9 C 8.53 5.03 8.31 5.03 8.18 4.9 C 8.18 4.9 4.5 1.27 4.5 1.27 C 4.5 1.27 0.81 4.9 0.81 4.9 C 0.68 5.03 0.46 5.03 0.33 4.9 C 0.33 4.9 0.09 4.66 0.09 4.66 C -0.04 4.53 -0.04 4.32 0.09 4.19 C 0.09 4.19 4.25 0.09 4.25 0.09 C 4.39 -0.04 4.6 -0.04 4.74 0.09 C 4.74 0.09 4.98 0.33 4.98 0.33 C 4.98 0.33 4.98 0.33 4.98 0.33 C 4.98 0.33 8.9 4.19 8.9 4.19 C 9.03 4.32 9.03 4.53 8.9 4.66 Z" />
</svg>