<!-- Generator: Avocode undefined - http://avocode.com -->
<svg height="27" width="27" xmlns:xlink="http://www.w3.org/1999/xlink" xmlns="http://www.w3.org/2000/svg" viewBox="0 0 27 27">
    <path fill="#4c5761" fill-rule="evenodd" d="M 25.31 15.29 C 25.31 15.29 23.72 15.29 23.72 15.29 C 22.99 17.21 21.13 18.58 18.95 18.58 C 16.77 18.58 14.91 17.21 14.18 15.29 C 14.18 15.29 1.69 15.29 1.69 15.29 C 0.76 15.29 0 14.53 0 13.6 C 0 12.67 0.76 11.92 1.69 11.92 C 1.69 11.92 14.11 11.92 14.11 11.92 C 14.77 9.89 16.69 8.41 18.95 8.41 C 21.21 8.41 23.13 9.89 23.79 11.92 C 23.79 11.92 25.31 11.92 25.31 11.92 C 26.24 11.92 27 12.67 27 13.6 C 27 14.53 26.24 15.29 25.31 15.29 Z M 18.95 11.78 C 18 11.78 17.23 12.55 17.23 13.5 C 17.23 14.45 18 15.22 18.95 15.22 C 19.9 15.22 20.67 14.45 20.67 13.5 C 20.67 12.55 19.9 11.78 18.95 11.78 Z M 25.31 6.87 C 25.31 6.87 12.82 6.87 12.82 6.87 C 12.09 8.79 10.23 10.17 8.05 10.17 C 5.87 10.17 4.01 8.79 3.28 6.87 C 3.28 6.87 1.69 6.87 1.69 6.87 C 0.76 6.87 0 6.12 0 5.19 C 0 4.26 0.76 3.5 1.69 3.5 C 1.69 3.5 3.21 3.5 3.21 3.5 C 3.88 1.47 5.79 0 8.05 0 C 10.31 0 12.23 1.47 12.89 3.5 C 12.89 3.5 25.31 3.5 25.31 3.5 C 26.24 3.5 27 4.26 27 5.19 C 27 6.12 26.24 6.87 25.31 6.87 Z M 8.05 3.36 C 7.1 3.36 6.33 4.13 6.33 5.08 C 6.33 6.03 7.1 6.8 8.05 6.8 C 9 6.8 9.77 6.03 9.77 5.08 C 9.77 4.13 9 3.36 8.05 3.36 Z M 1.69 20.34 C 1.69 20.34 3.21 20.34 3.21 20.34 C 3.88 18.3 5.79 16.83 8.05 16.83 C 10.31 16.83 12.23 18.3 12.89 20.34 C 12.89 20.34 25.31 20.34 25.31 20.34 C 26.24 20.34 27 21.09 27 22.02 C 27 22.95 26.24 23.7 25.31 23.7 C 25.31 23.7 12.82 23.7 12.82 23.7 C 12.09 25.63 10.23 27 8.05 27 C 5.87 27 4.01 25.63 3.28 23.7 C 3.28 23.7 1.69 23.7 1.69 23.7 C 0.76 23.7 0 22.95 0 22.02 C 0 21.09 0.76 20.34 1.69 20.34 Z M 8.05 23.63 C 9 23.63 9.77 22.86 9.77 21.92 C 9.77 20.97 9 20.2 8.05 20.2 C 7.1 20.2 6.33 20.97 6.33 21.92 C 6.33 22.86 7.1 23.63 8.05 23.63 Z" />
</svg>