<!-- Generator: Avocode undefined - http://avocode.com -->
<svg height="76" width="78" xmlns:xlink="http://www.w3.org/1999/xlink" xmlns="http://www.w3.org/2000/svg" viewBox="0 0 78 76">
    <path fill="#48576d" fill-rule="evenodd" d="M 74.29 90.03 C 74.29 90.03 3.71 90.03 3.71 90.03 C 1.66 90.03 0 88.36 0 86.31 C 0 86.31 0 63.94 0 63.94 C 0 55.77 6.73 49.12 15 49.12 C 15 49.12 63 49.12 63 49.12 C 71.27 49.12 78 55.77 78 63.94 C 78 63.94 78 86.31 78 86.31 C 78 88.36 76.34 90.03 74.29 90.03 Z M 70.57 63.94 C 70.57 59.87 67.18 56.56 63 56.56 C 63 56.56 15 56.56 15 56.56 C 10.82 56.56 7.43 59.87 7.43 63.94 C 7.43 63.94 7.43 82.59 7.43 82.59 C 7.43 82.59 70.57 82.59 70.57 82.59 C 70.57 82.59 70.57 63.94 70.57 63.94 Z M 39 41.29 C 27.63 41.29 18.38 32.02 18.38 20.63 C 18.38 9.24 27.63 -0.03 39 -0.03 C 50.37 -0.03 59.62 9.24 59.62 20.63 C 59.62 32.02 50.37 41.29 39 41.29 Z M 39 7.42 C 31.73 7.42 25.81 13.34 25.81 20.63 C 25.81 27.92 31.73 33.85 39 33.85 C 46.28 33.85 52.2 27.92 52.2 20.63 C 52.2 13.34 46.28 7.42 39 7.42 Z" />
</svg>