<!-- Generator: Avocode undefined - http://avocode.com -->
<svg height="19" width="11" xmlns:xlink="http://www.w3.org/1999/xlink" xmlns="http://www.w3.org/2000/svg" viewBox="0 0 11 19">
    <path fill="#9fd092" fill-rule="evenodd" d="M 9 0 C 9 0 2 0 2 0 C 0.89 0 0 0.87 0 1.93 C 0 1.93 0 17.02 0 17.02 C 0 17.74 0.38 18.43 1.03 18.77 C 1.33 18.93 1.65 19 1.97 19 C 2.6 19 3.21 18.71 3.58 18.19 C 3.58 18.19 5.47 15.62 5.47 15.62 C 5.48 15.61 5.5 15.61 5.5 15.62 C 5.5 15.62 7.43 18.21 7.43 18.21 C 7.8 18.71 8.41 19 9.03 19 C 9.36 19 9.69 18.92 10 18.75 C 10.64 18.4 11 17.72 11 17.01 C 11 17.01 11 1.93 11 1.93 C 11 0.87 10.11 0 9 0 Z M 8.47 16.34 C 8.47 16.34 5.78 12.72 5.78 12.72 C 5.63 12.52 5.32 12.52 5.17 12.72 C 5.17 12.72 2.42 16.48 2.42 16.48 C 2.28 16.67 1.97 16.57 1.97 16.34 C 1.97 16.34 1.97 2.68 1.97 2.68 C 1.97 2.12 2.44 1.67 3.01 1.67 C 3.01 1.67 8.04 1.67 8.04 1.67 C 8.59 1.67 9.03 2.1 9.03 2.63 C 9.03 2.63 9.03 16.17 9.03 16.17 C 9.03 16.46 8.64 16.58 8.47 16.34 Z" />
</svg>