<!-- Generator: Avocode undefined - http://avocode.com -->
<svg height="12" width="12" xmlns:xlink="http://www.w3.org/1999/xlink" xmlns="http://www.w3.org/2000/svg" viewBox="0 0 12 12">
    <path fill="#496a84" fill-rule="evenodd" d="M 7.14 5.99 C 7.14 5.99 11.74 1.39 11.74 1.39 C 12.06 1.07 12.06 0.55 11.74 0.23 C 11.42 -0.09 10.9 -0.09 10.58 0.23 C 10.58 0.23 5.99 4.84 5.99 4.84 C 5.99 4.84 1.39 0.25 1.39 0.25 C 1.07 -0.07 0.55 -0.07 0.23 0.25 C -0.09 0.57 -0.09 1.09 0.23 1.4 C 0.23 1.4 4.83 5.99 4.83 5.99 C 4.83 5.99 0.25 10.59 0.25 10.59 C -0.07 10.91 -0.07 11.43 0.25 11.75 C 0.57 12.07 1.08 12.07 1.4 11.75 C 1.4 11.75 6 7.15 6 7.15 C 6 7.15 10.59 11.75 10.59 11.75 C 10.91 12.07 11.43 12.07 11.75 11.75 C 12.07 11.43 12.07 10.91 11.75 10.59 C 11.75 10.59 7.14 5.99 7.14 5.99 Z" />
</svg>