<!-- Generator: Avocode undefined - http://avocode.com -->
<svg height="16" width="9" xmlns:xlink="http://www.w3.org/1999/xlink" xmlns="http://www.w3.org/2000/svg" viewBox="0 0 9 16">
    <path fill="#ffffff" fill-rule="evenodd" d="M 8.85 8.42 C 8.85 8.42 8.42 8.85 8.42 8.85 C 8.41 8.85 8.41 8.85 8.41 8.85 C 8.41 8.85 1.46 15.82 1.46 15.82 C 1.22 16.06 0.84 16.06 0.6 15.82 C 0.6 15.82 0.17 15.39 0.17 15.39 C -0.06 15.16 -0.06 14.77 0.17 14.54 C 0.17 14.54 6.71 7.99 6.71 7.99 C 6.71 7.99 0.17 1.44 0.17 1.44 C -0.06 1.21 -0.06 0.82 0.17 0.59 C 0.17 0.59 0.6 0.16 0.6 0.16 C 0.84 -0.08 1.22 -0.08 1.46 0.16 C 1.46 0.16 8.85 7.56 8.85 7.56 C 9.08 7.8 9.08 8.18 8.85 8.42 Z" />
</svg>