<?xml version="1.0" encoding="utf-8"?>
<!-- Generator: Adobe Illustrator 16.0.0, SVG Export Plug-In . SVG Version: 6.00 Build 0)  -->
<!DOCTYPE svg PUBLIC "-//W3C//DTD SVG 1.1//EN" "http://www.w3.org/Graphics/SVG/1.1/DTD/svg11.dtd">
<svg version="1.1" id="Layer_1" xmlns="http://www.w3.org/2000/svg" xmlns:xlink="http://www.w3.org/1999/xlink" x="0px" y="0px"
	 width="320.7px" height="610.3px" viewBox="0 0 320.7 610.3" style="enable-background:new 0 0 320.7 610.3;" xml:space="preserve"
	>
<style type="text/css">
<![CDATA[
	.st0{fill:#29D381;}
]]>
</style>
<g>
	<path class="st0" d="M160.3,610.3C71.3,610.3,0,537.9,0,450V128.2c0-16.5,13.5-30,30-30c16.5,0,30,13.5,30,30V450
		c0,55.8,45.6,100.4,100.4,100.4c55.8,0,100.4-45.6,100.4-100.4V98.2c0-20.7-17.6-38.2-38.2-38.2c-17.6,0-32.1,14.5-32.1,32.1v358
		c0,16.5-13.5,30-30,30s-30-13.5-30-30v-358c0-50.6,41.5-92.1,92.1-92.1c53.9,0,98.2,44.5,98.2,98.2V450
		C320.7,537.9,249.4,610.3,160.3,610.3z"/>
</g>
</svg>
