<!-- Generator: Avocode undefined - http://avocode.com -->
<svg height="22" width="19" xmlns:xlink="http://www.w3.org/1999/xlink" xmlns="http://www.w3.org/2000/svg" viewBox="0 0 19 22">
    <path fill="#d4f3cc" fill-rule="evenodd" d="M 15.61 13.75 C 15.98 13.75 16.29 13.44 16.29 13.06 C 16.29 12.68 15.98 12.38 15.61 12.38 C 15.61 12.38 3.39 12.38 3.39 12.38 C 3.01 12.38 2.71 12.68 2.71 13.06 C 2.71 13.44 3.01 13.75 3.39 13.75 C 3.39 13.75 15.61 13.75 15.61 13.75 Z M 2.71 8.94 C 2.71 9.32 3.01 9.63 3.39 9.63 C 3.39 9.63 15.61 9.63 15.61 9.63 C 15.98 9.63 16.29 9.32 16.29 8.94 C 16.29 8.56 15.98 8.25 15.61 8.25 C 15.61 8.25 3.39 8.25 3.39 8.25 C 3.01 8.25 2.71 8.56 2.71 8.94 Z M 2.71 4.81 C 2.71 5.19 3.01 5.5 3.39 5.5 C 3.39 5.5 15.61 5.5 15.61 5.5 C 15.98 5.5 16.29 5.19 16.29 4.81 C 16.29 4.43 15.98 4.13 15.61 4.13 C 15.61 4.13 3.39 4.13 3.39 4.13 C 3.01 4.13 2.71 4.43 2.71 4.81 Z M 12.22 15.81 C 12.22 15.81 12.22 22 12.22 22 C 12.22 22 1.35 22 1.35 22 C 0.6 22 0 21.39 0 20.63 C 0 20.63 0 1.38 0 1.38 C 0 0.61 0.6 0 1.35 0 C 1.35 0 17.65 0 17.65 0 C 18.4 0 19 0.61 19 1.38 C 19 1.38 19 15.13 19 15.13 C 19 15.13 12.89 15.13 12.89 15.13 C 12.52 15.13 12.22 15.43 12.22 15.81 Z M 13.57 16.5 C 13.57 16.5 19 16.5 19 16.5 C 19 16.5 13.57 22 13.57 22 C 13.57 22 13.57 16.5 13.57 16.5 Z" />
</svg>