<!-- Generator: Avocode undefined - http://avocode.com -->
<svg height="44" width="36" xmlns:xlink="http://www.w3.org/1999/xlink" xmlns="http://www.w3.org/2000/svg" viewBox="0 0 36 44">
    <path fill="#9fd092" fill-rule="evenodd" d="M 18.11 23.15 C 13.99 23.15 10.64 19.75 10.64 15.58 C 10.64 11.41 13.99 8.02 18.11 8.02 C 22.23 8.02 25.58 11.41 25.58 15.58 C 25.58 19.75 22.23 23.15 18.11 23.15 Z M 18.11 11.69 C 15.99 11.69 14.26 13.44 14.26 15.58 C 14.26 17.73 15.99 19.48 18.11 19.48 C 20.24 19.48 21.96 17.73 21.96 15.58 C 21.96 13.44 20.24 11.69 18.11 11.69 Z M 18 3.67 C 25.93 3.67 32.38 10.19 32.38 18.22 C 32.38 27.23 20.98 40.11 18.02 40.33 C 15.02 40.11 3.62 27.23 3.62 18.22 C 3.62 10.19 10.07 3.67 18 3.67 M 18 0 C 8.06 0 0 8.16 0 18.22 C 0 28.28 12.23 44 18 44 C 23.77 44 36 28.28 36 18.22 C 36 8.16 27.94 0 18 0 C 18 0 18 0 18 0 Z" />
</svg>