<?xml version="1.0" encoding="utf-8"?>
<!-- Generator: Adobe Illustrator 16.0.0, SVG Export Plug-In . SVG Version: 6.00 Build 0)  -->
<!DOCTYPE svg PUBLIC "-//W3C//DTD SVG 1.1//EN" "http://www.w3.org/Graphics/SVG/1.1/DTD/svg11.dtd">
<svg version="1.1" id="Layer_1" xmlns="http://www.w3.org/2000/svg" xmlns:xlink="http://www.w3.org/1999/xlink" x="0px" y="0px"
	 width="397.8px" height="617.1px" viewBox="107.1 90 397.8 617.1" enable-background="new 107.1 90 397.8 617.1"
	 xml:space="preserve">
<g>
	<path fill="#4C5761" d="M285.6,513.3c-15.3,0-30.6-15.3-35.7-35.7l-5.1-71.399c-5.1-25.5,10.2-40.8,30.6-45.9
		c81.6-5.1,122.4-35.7,122.4-91.8l0,0c0-45.9-35.7-81.6-96.9-81.6c-45.9,0-81.6,15.3-112.2,45.9c-10.2,10.2-20.4,15.3-35.7,15.3
		c-25.5,0-45.9-20.4-45.9-45.9c0-15.3,5.1-25.5,15.3-35.7C168.3,120.6,224.4,90,306,90c117.3,0,198.9,66.3,198.9,173.4l0,0
		c0,107.1-76.5,158.1-173.4,173.4v40.8c-5.1,20.4-20.4,35.7-40.8,35.7H285.6z M285.6,574.5c35.7,0,61.2,25.5,61.2,61.2v10.2
		c0,35.699-25.5,61.199-61.2,61.199c-35.7,0-61.2-25.5-61.2-61.199v-10.2C229.5,600,255,574.5,285.6,574.5z"/>
</g>
</svg>
