<!-- Generator: Avocode undefined - http://avocode.com -->
<svg height="30" width="30" xmlns:xlink="http://www.w3.org/1999/xlink" xmlns="http://www.w3.org/2000/svg" viewBox="0 0 30 30">
    <path fill="#a4b4ba" fill-rule="evenodd" d="M 15 30 C 6.73 30 0 23.27 0 15 C 0 6.73 6.73 0 15 0 C 23.27 0 30.01 6.73 30.01 15 C 30.01 23.27 23.27 30 15 30 Z M 15 2.79 C 8.26 2.79 2.78 8.27 2.78 15 C 2.78 21.74 8.26 27.22 15 27.22 C 21.74 27.22 27.22 21.74 27.22 15 C 27.22 8.27 21.74 2.79 15 2.79 Z M 16.97 15 C 16.97 15 19.49 17.52 19.49 17.52 C 20.03 18.06 20.03 18.95 19.49 19.49 C 18.95 20.03 18.07 20.03 17.53 19.49 C 17.53 19.49 15.01 16.97 15.01 16.97 C 15.01 16.97 12.48 19.49 12.48 19.49 C 11.94 20.03 11.05 20.03 10.52 19.49 C 9.97 18.95 9.97 18.06 10.52 17.52 C 10.52 17.52 13.04 15 13.04 15 C 13.04 15 10.52 12.48 10.52 12.48 C 9.97 11.94 9.97 11.06 10.52 10.51 C 11.06 9.97 11.94 9.97 12.48 10.51 C 12.48 10.51 15.01 13.04 15.01 13.04 C 15.01 13.04 17.53 10.52 17.53 10.52 C 18.07 9.97 18.95 9.97 19.49 10.52 C 20.03 11.06 20.04 11.94 19.49 12.48 C 19.49 12.48 16.97 15 16.97 15 Z" />
</svg>