<!-- Generator: Avocode undefined - http://avocode.com -->
<svg height="42" width="36" xmlns:xlink="http://www.w3.org/1999/xlink" xmlns="http://www.w3.org/2000/svg" viewBox="0 0 36 42">
    <path fill="#9fd092" fill-rule="evenodd" d="M 30.53 3.5 C 31.56 3.5 32.4 4.27 32.4 5.22 C 32.4 5.22 32.4 36.78 32.4 36.78 C 32.4 37.73 31.56 38.5 30.53 38.5 C 30.53 38.5 5.47 38.5 5.47 38.5 C 4.44 38.5 3.6 37.73 3.6 36.78 C 3.6 36.78 3.6 5.22 3.6 5.22 C 3.6 4.27 4.44 3.5 5.47 3.5 C 5.47 3.5 30.53 3.5 30.53 3.5 M 30.53 0 C 30.53 0 5.47 0 5.47 0 C 2.45 0 0 2.34 0 5.22 C 0 5.22 0 36.78 0 36.78 C 0 39.66 2.45 42 5.47 42 C 5.47 42 30.53 42 30.53 42 C 33.55 42 36 39.66 36 36.78 C 36 36.78 36 5.22 36 5.22 C 36 2.34 33.55 0 30.53 0 C 30.53 0 30.53 0 30.53 0 Z M 25.28 13.98 C 25.28 13.98 10.8 13.98 10.8 13.98 C 9.81 13.98 9 13.2 9 12.23 C 9 11.27 9.81 10.48 10.8 10.48 C 10.8 10.48 25.28 10.48 25.28 10.48 C 26.27 10.48 27.08 11.27 27.08 12.23 C 27.08 13.2 26.27 13.98 25.28 13.98 Z M 25.28 22.73 C 25.28 22.73 10.8 22.73 10.8 22.73 C 9.81 22.73 9 21.95 9 20.98 C 9 20.02 9.81 19.23 10.8 19.23 C 10.8 19.23 25.28 19.23 25.28 19.23 C 26.27 19.23 27.08 20.02 27.08 20.98 C 27.08 21.95 26.27 22.73 25.28 22.73 Z M 19.88 31.45 C 19.88 31.45 10.8 31.45 10.8 31.45 C 9.81 31.45 9 30.66 9 29.7 C 9 28.73 9.81 27.95 10.8 27.95 C 10.8 27.95 19.88 27.95 19.88 27.95 C 20.87 27.95 21.67 28.73 21.67 29.7 C 21.67 30.66 20.87 31.45 19.88 31.45 Z" />
</svg>