<!-- Generator: Avocode undefined - http://avocode.com -->
<svg height="40" width="40" xmlns:xlink="http://www.w3.org/1999/xlink" xmlns="http://www.w3.org/2000/svg" viewBox="0 0 40 40">
    <path fill="#a1a8b1" fill-rule="evenodd" d="M 34.94 3.33 C 35.89 3.33 36.67 4.07 36.67 4.98 C 36.67 4.98 36.67 35.03 36.67 35.03 C 36.67 35.93 35.89 36.67 34.94 36.67 C 34.94 36.67 5.06 36.67 5.06 36.67 C 4.11 36.67 3.33 35.93 3.33 35.03 C 3.33 35.03 3.33 4.98 3.33 4.98 C 3.33 4.07 4.11 3.33 5.06 3.33 C 5.06 3.33 34.94 3.33 34.94 3.33 M 34.94 0 C 34.94 0 5.06 0 5.06 0 C 2.27 0 0 2.23 0 4.98 C 0 4.98 0 35.03 0 35.03 C 0 37.77 2.27 40 5.06 40 C 5.06 40 34.94 40 34.94 40 C 37.73 40 40 37.77 40 35.03 C 40 35.03 40 4.98 40 4.98 C 40 2.23 37.73 0 34.94 0 C 34.94 0 34.94 0 34.94 0 Z M 14.9 18.23 C 14.9 18.23 11.77 18.23 11.77 18.23 C 9.93 18.23 8.44 16.73 8.44 14.9 C 8.44 14.9 8.44 11.77 8.44 11.77 C 8.44 9.93 9.93 8.44 11.77 8.44 C 11.77 8.44 14.9 8.44 14.9 8.44 C 16.73 8.44 18.23 9.93 18.23 11.77 C 18.23 11.77 18.23 14.9 18.23 14.9 C 18.23 16.73 16.73 18.23 14.9 18.23 Z M 11.77 11.77 C 11.77 11.77 11.77 14.9 11.77 14.9 C 11.77 14.9 14.9 14.9 14.9 14.9 C 14.9 14.9 14.9 11.77 14.9 11.77 C 14.9 11.77 11.77 11.77 11.77 11.77 Z M 28.23 18.23 C 28.23 18.23 25.1 18.23 25.1 18.23 C 23.27 18.23 21.77 16.73 21.77 14.9 C 21.77 14.9 21.77 11.77 21.77 11.77 C 21.77 9.93 23.27 8.44 25.1 8.44 C 25.1 8.44 28.23 8.44 28.23 8.44 C 30.07 8.44 31.56 9.93 31.56 11.77 C 31.56 11.77 31.56 14.9 31.56 14.9 C 31.56 16.73 30.07 18.23 28.23 18.23 Z M 25.1 11.77 C 25.1 11.77 25.1 14.9 25.1 14.9 C 25.1 14.9 28.23 14.9 28.23 14.9 C 28.23 14.9 28.23 11.77 28.23 11.77 C 28.23 11.77 25.1 11.77 25.1 11.77 Z M 14.9 31.56 C 14.9 31.56 11.77 31.56 11.77 31.56 C 9.93 31.56 8.44 30.07 8.44 28.23 C 8.44 28.23 8.44 25.1 8.44 25.1 C 8.44 23.27 9.93 21.77 11.77 21.77 C 11.77 21.77 14.9 21.77 14.9 21.77 C 16.73 21.77 18.23 23.27 18.23 25.1 C 18.23 25.1 18.23 28.23 18.23 28.23 C 18.23 30.07 16.73 31.56 14.9 31.56 Z M 11.77 25.1 C 11.77 25.1 11.77 28.23 11.77 28.23 C 11.77 28.23 14.9 28.23 14.9 28.23 C 14.9 28.23 14.9 25.1 14.9 25.1 C 14.9 25.1 11.77 25.1 11.77 25.1 Z M 28.23 31.56 C 28.23 31.56 25.1 31.56 25.1 31.56 C 23.27 31.56 21.77 30.07 21.77 28.23 C 21.77 28.23 21.77 25.1 21.77 25.1 C 21.77 23.27 23.27 21.77 25.1 21.77 C 25.1 21.77 28.23 21.77 28.23 21.77 C 30.07 21.77 31.56 23.27 31.56 25.1 C 31.56 25.1 31.56 28.23 31.56 28.23 C 31.56 30.07 30.07 31.56 28.23 31.56 Z M 25.1 25.1 C 25.1 25.1 25.1 28.23 25.1 28.23 C 25.1 28.23 28.23 28.23 28.23 28.23 C 28.23 28.23 28.23 25.1 28.23 25.1 C 28.23 25.1 25.1 25.1 25.1 25.1 Z" />
</svg>