<!-- Generator: Avocode undefined - http://avocode.com -->
<svg height="43" width="43" xmlns:xlink="http://www.w3.org/1999/xlink" xmlns="http://www.w3.org/2000/svg" viewBox="0 0 43 43">
    <path fill="#a3d697" fill-rule="evenodd" d="M 42.57 36.13 C 40.13 41.97 34.41 43 32.55 43 C 32 43 23.46 43.45 11.19 31.81 C 1.31 22.44 0.11 12.36 0 10.45 C -0.1 8.58 0.44 3.9 6.87 0.43 C 7.66 -0.01 9.25 -0.2 9.65 0.21 C 9.84 0.39 15.23 9.28 15.38 9.58 C 15.52 9.87 15.59 10.16 15.59 10.44 C 15.59 10.85 15.3 11.36 14.72 11.97 C 14.14 12.58 13.51 13.13 12.83 13.64 C 12.15 14.15 11.52 14.69 10.95 15.26 C 10.37 15.82 10.08 16.29 10.08 16.66 C 10.12 17.61 10.9 21 16.81 26.2 C 22.73 31.4 25.58 32.87 25.85 32.97 C 26.13 33.07 26.36 33.12 26.54 33.12 C 26.9 33.12 27.37 32.83 27.94 32.25 C 28.51 31.67 30.42 29.06 31.02 28.48 C 31.63 27.9 32.14 27.61 32.55 27.61 C 32.83 27.61 33.12 27.68 33.41 27.82 C 33.71 27.96 42.61 33.17 42.78 33.35 C 43.24 33.82 42.91 35.3 42.57 36.13" />
</svg>