<!-- Generator: Avocode undefined - http://avocode.com -->
<svg height="36" width="32" xmlns:xlink="http://www.w3.org/1999/xlink" xmlns="http://www.w3.org/2000/svg" viewBox="0 0 32 36">
    <path fill="#897dcc" fill-rule="evenodd" d="M 4.99 34.32 C 0.22 31.57 -1.33 25.27 1.55 20.28 C 1.55 20.28 12.19 1.86 12.19 1.86 C 12.68 1.01 13.74 0.7 14.55 1.17 C 15.36 1.64 15.63 2.71 15.13 3.56 C 15.13 3.56 4.5 21.98 4.5 21.98 C 2.6 25.27 3.62 29.43 6.77 31.25 C 9.91 33.07 14.02 31.87 15.92 28.58 C 15.92 28.58 27.56 8.42 27.56 8.42 C 28.31 7.12 27.91 5.47 26.66 4.75 C 25.6 4.13 24.22 4.54 23.58 5.64 C 23.58 5.64 11.73 26.16 11.73 26.16 C 11.24 27.01 10.18 27.32 9.37 26.85 C 8.56 26.38 8.29 25.31 8.78 24.46 C 8.78 24.46 20.63 3.94 20.63 3.94 C 22.25 1.14 25.75 0.12 28.43 1.67 C 31.31 3.33 32.24 7.12 30.5 10.13 C 30.5 10.13 18.87 30.28 18.87 30.28 C 15.99 35.27 9.76 37.08 4.99 34.32 Z" />
</svg>