<!-- Generator: Avocode undefined - http://avocode.com -->
<svg height="19" width="17" xmlns:xlink="http://www.w3.org/1999/xlink" xmlns="http://www.w3.org/2000/svg" viewBox="0 0 17 19">
    <path fill="#9fd092" fill-rule="evenodd" d="M 2.66 18.28 C 0.06 16.77 -0.78 13.33 0.79 10.6 C 0.79 10.6 6.57 0.51 6.57 0.51 C 6.84 0.05 7.42 -0.12 7.86 0.14 C 8.3 0.39 8.44 0.98 8.18 1.44 C 8.18 1.44 2.39 11.53 2.39 11.53 C 1.35 13.33 1.91 15.6 3.62 16.6 C 5.34 17.59 7.57 16.94 8.61 15.14 C 8.61 15.14 14.94 4.11 14.94 4.11 C 15.35 3.39 15.13 2.49 14.45 2.09 C 13.87 1.76 13.12 1.98 12.77 2.59 C 12.77 2.59 6.32 13.82 6.32 13.82 C 6.06 14.28 5.48 14.45 5.04 14.19 C 4.6 13.93 4.45 13.35 4.72 12.88 C 4.72 12.88 11.17 1.65 11.17 1.65 C 12.05 0.12 13.95 -0.44 15.42 0.41 C 16.98 1.32 17.49 3.39 16.54 5.04 C 16.54 5.04 10.21 16.07 10.21 16.07 C 8.64 18.8 5.25 19.79 2.66 18.28 Z" />
</svg>