<!-- Generator: Avocode undefined - http://avocode.com -->
<svg height="32" width="33" xmlns:xlink="http://www.w3.org/1999/xlink" xmlns="http://www.w3.org/2000/svg" viewBox="0 0 33 32">
    <path fill="#b8c5c9" fill-rule="evenodd" d="M 24.99 18.09 C 23.77 22.64 19.09 25.34 14.54 24.12 C 10 22.9 7.3 18.22 8.52 13.67 C 9.74 9.12 14.41 6.42 18.96 7.64 C 23.51 8.86 26.2 13.54 24.99 18.09 Z M 31.07 16.87 C 29.28 16.39 28.88 12.2 30.34 11.36 C 30.82 11.08 31.2 10.68 31.44 10.23 C 31.06 8.84 29.76 6.83 29.02 5.94 C 28.49 5.91 27.94 6.04 27.44 6.33 C 25.84 7.25 22.54 4.78 23.03 2.94 C 23.19 2.36 23.11 1.67 22.98 1.26 C 22.07 0.79 19.92 0.16 18.32 0 C 17.98 0.25 17.58 0.86 17.43 1.44 C 16.91 3.38 12.78 3.66 11.9 2.13 C 11.6 1.62 11.06 1.14 10.68 0.99 C 9.65 1.3 7.4 2.6 6.5 3.35 C 6.56 3.89 6.57 4.51 6.87 5.03 C 7.76 6.57 5.37 9.98 3.47 9.47 C 2.85 9.3 2.2 9.35 1.67 9.57 C 1.23 10.54 0.56 13.11 0.5 14.14 C 0.63 14.42 1.37 14.92 1.97 15.08 C 4.54 15.77 4.57 19.55 2.7 20.62 C 2.17 20.93 1.72 21.35 1.54 21.88 C 1.85 22.89 3.11 25.09 3.92 26.03 C 4.46 26.09 5.08 25.96 5.6 25.65 C 7.27 24.69 10.6 26.95 10.04 29.06 C 9.89 29.6 9.97 30.18 10.06 30.74 C 11.32 31.28 13.58 32.03 14.84 32 C 15.24 31.62 15.5 31.09 15.64 30.56 C 16.13 28.72 20.2 28.13 21.16 29.8 C 21.43 30.26 21.81 30.71 22.24 30.96 C 23.56 30.58 25.87 29.28 26.65 28.47 C 26.68 27.87 26.46 27.38 26.18 26.89 C 25.15 25.09 27.57 21.94 29.57 22.48 C 30.11 22.63 30.71 22.57 31.21 22.45 C 31.65 21.35 32.38 19.39 32.5 17.76 C 32.06 17.26 31.64 17.03 31.07 16.87 Z" />
</svg>