<!-- Generator: Avocode undefined - http://avocode.com -->
<svg height="16" width="9" xmlns:xlink="http://www.w3.org/1999/xlink" xmlns="http://www.w3.org/2000/svg" viewBox="0 0 9 16">
    <path fill="#ffffff" fill-rule="evenodd" d="M 8.83 1.46 C 8.83 1.46 2.31 8.01 2.31 8.01 C 2.31 8.01 8.83 14.56 8.83 14.56 C 9.06 14.79 9.06 15.18 8.83 15.41 C 8.83 15.41 8.4 15.84 8.4 15.84 C 8.16 16.08 7.78 16.08 7.55 15.84 C 7.55 15.84 0.19 8.44 0.19 8.44 C -0.05 8.2 -0.05 7.82 0.19 7.58 C 0.19 7.58 0.61 7.15 0.61 7.15 C 0.61 7.15 0.61 7.15 0.62 7.15 C 0.62 7.15 7.55 0.18 7.55 0.18 C 7.78 -0.06 8.17 -0.06 8.4 0.18 C 8.4 0.18 8.83 0.61 8.83 0.61 C 9.06 0.84 9.06 1.23 8.83 1.46 Z" />
</svg>