<?xml version="1.0" encoding="utf-8"?>
<!-- Generator: Adobe Illustrator 16.0.0, SVG Export Plug-In . SVG Version: 6.00 Build 0)  -->
<!DOCTYPE svg PUBLIC "-//W3C//DTD SVG 1.1//EN" "http://www.w3.org/Graphics/SVG/1.1/DTD/svg11.dtd">
<svg version="1.1" id="Layer_1" xmlns="http://www.w3.org/2000/svg" xmlns:xlink="http://www.w3.org/1999/xlink" x="0px" y="0px"
	 width="604.5px" height="604.1px" viewBox="0 0 604.5 604.1" style="enable-background:new 0 0 604.5 604.1;" xml:space="preserve"
	>
<style type="text/css">
<![CDATA[
	.st0{fill:#4C5760;}
]]>
</style>
<path class="st0" d="M462.4,341.3c-23,86-111.4,136.9-197.2,114C179.3,432.2,128.4,343.9,151.3,258c23-86,111.4-136.9,197.2-114
	C434.5,166.9,485.5,255.4,462.4,341.3z M577.3,318.4c-33.8-9-41.5-88.3-13.8-104.2c9-5.2,16.1-12.7,20.8-21.3
	c-7.2-26.3-31.8-64.1-45.6-80.9c-10.1-0.5-20.5,1.8-29.8,7.3c-30.1,17.4-92.6-29.2-83.2-64c2.9-10.9,1.4-24-1.1-31.7
	c-17.1-8.9-57.8-20.8-88-23.7c-6.6,4.7-13.9,16.2-16.8,27.1c-9.8,36.7-87.8,42.1-104.5,13.2c-5.5-9.6-15.9-18.7-23-21.6
	c-19.6,6-62,30.6-79.1,44.7c1.2,10.1,1.4,21.7,7.2,31.7c16.7,28.9-28.5,93.3-64.3,83.8c-11.8-3.2-24-2.3-34.1,1.8
	C13.8,199.1,1.2,247.6,0,267c2.3,5.4,16.5,14.7,27.8,17.7c48.7,13,49,84.5,13.8,104.7c-9.9,5.8-18.5,13.8-22,23.9
	c6,19,29.7,60.6,45.1,78.3c10.1,1.2,21.7-1.4,31.7-7.2c31.4-18.2,94.4,24.6,83.7,64.3c-2.8,10.3-1.2,21.3,0.5,31.8
	c23.7,10.1,66.6,24.2,90.1,23.6c7.6-7.2,12.4-17,15.1-27.1c9.3-34.7,86.1-45.9,104.3-14.4c5,8.7,12.2,17.1,20.5,21.9
	c24.8-7,68.5-31.5,83.4-47c0.6-11.2-3.7-20.7-8.9-29.8c-19.6-34,26.2-93.5,64-83.4c10.3,2.8,21.6,1.8,31.1-0.6
	c8.3-20.7,22-57.7,24.3-88.6C596.1,325.7,588.1,321.3,577.3,318.4z"/>
</svg>
