<!-- Generator: Avocode undefined - http://avocode.com -->
<svg height="73" width="78" xmlns:xlink="http://www.w3.org/1999/xlink" xmlns="http://www.w3.org/2000/svg" viewBox="0 0 78 73">
    <path fill="#aee5a0" fill-rule="evenodd" d="M 66.15 7.67 C 68.38 7.67 70.2 9.36 70.2 11.44 C 70.2 11.44 70.2 80.56 70.2 80.56 C 70.2 82.64 68.38 84.33 66.15 84.33 C 66.15 84.33 11.85 84.33 11.85 84.33 C 9.62 84.33 7.8 82.64 7.8 80.56 C 7.8 80.56 7.8 11.44 7.8 11.44 C 7.8 9.36 9.62 7.67 11.85 7.67 C 11.85 7.67 66.15 7.67 66.15 7.67 M 66.15 0 C 66.15 0 11.85 0 11.85 0 C 5.31 0 0 5.12 0 11.44 C 0 11.44 0 80.56 0 80.56 C 0 86.88 5.31 92 11.85 92 C 11.85 92 66.15 92 66.15 92 C 72.69 92 78 86.88 78 80.56 C 78 80.56 78 11.44 78 11.44 C 78 5.12 72.69 0 66.15 0 C 66.15 0 66.15 0 66.15 0 Z M 54.76 30.63 C 54.76 30.63 23.4 30.63 23.4 30.63 C 21.25 30.63 19.5 28.91 19.5 26.79 C 19.5 24.68 21.25 22.96 23.4 22.96 C 23.4 22.96 54.76 22.96 54.76 22.96 C 56.92 22.96 58.66 24.68 58.66 26.79 C 58.66 28.91 56.92 30.63 54.76 30.63 Z M 54.76 49.8 C 54.76 49.8 23.4 49.8 23.4 49.8 C 21.25 49.8 19.5 48.08 19.5 45.96 C 19.5 43.84 21.25 42.13 23.4 42.13 C 23.4 42.13 54.76 42.13 54.76 42.13 C 56.92 42.13 58.66 43.84 58.66 45.96 C 58.66 48.08 56.92 49.8 54.76 49.8 Z M 43.06 68.88 C 43.06 68.88 23.4 68.88 23.4 68.88 C 21.25 68.88 19.5 67.16 19.5 65.05 C 19.5 62.93 21.25 61.21 23.4 61.21 C 23.4 61.21 43.06 61.21 43.06 61.21 C 45.22 61.21 46.96 62.93 46.96 65.05 C 46.96 67.16 45.22 68.88 43.06 68.88 Z" />
</svg>