<!-- Generator: Avocode undefined - http://avocode.com -->
<svg height="22" width="22" xmlns:xlink="http://www.w3.org/1999/xlink" xmlns="http://www.w3.org/2000/svg" viewBox="0 0 22 22">
    <path fill="#6c8e64" fill-rule="evenodd" d="M 13.05 10.99 C 13.05 10.99 21.33 2.7 21.33 2.7 C 21.9 2.13 21.9 1.19 21.33 0.62 C 20.75 0.05 19.82 0.05 19.25 0.62 C 19.25 0.62 10.97 8.9 10.97 8.9 C 10.97 8.9 2.7 0.65 2.7 0.65 C 2.13 0.07 1.19 0.07 0.62 0.65 C 0.05 1.22 0.05 2.15 0.62 2.73 C 0.62 2.73 8.89 10.99 8.89 10.99 C 8.89 10.99 0.64 19.27 0.64 19.27 C 0.07 19.84 0.07 20.78 0.64 21.35 C 1.22 21.92 2.15 21.92 2.72 21.35 C 2.72 21.35 11 13.07 11 13.07 C 11 13.07 19.27 21.35 19.27 21.35 C 19.84 21.92 20.78 21.92 21.35 21.35 C 21.92 20.78 21.92 19.84 21.35 19.27 C 21.35 19.27 13.05 10.99 13.05 10.99 Z" />
</svg>