<!-- Generator: Avocode undefined - http://avocode.com -->
<svg height="46" width="38" xmlns:xlink="http://www.w3.org/1999/xlink" xmlns="http://www.w3.org/2000/svg" viewBox="0 0 38 46">
    <path fill="#9fd092" fill-rule="evenodd" d="M 14.04 3.5 C 14.18 3.57 14.29 3.69 14.5 3.92 C 15.31 4.82 16.39 7.72 18.05 11.77 C 18.06 11.78 18.06 11.78 18.07 11.78 C 18.44 12.69 18.33 12.86 18.29 12.94 C 18.25 13.02 17.97 13.32 17.27 13.74 C 17.27 13.74 14.85 15.18 14.85 15.18 C 14.72 15.25 14.6 15.35 14.49 15.46 C 14.41 15.55 13.64 16.26 13.17 17.35 C 12.7 18.43 12.59 20.04 13.38 21.62 C 13.38 21.62 13.37 21.64 13.37 21.64 C 13.37 21.64 13.35 21.63 13.35 21.63 C 13.95 22.84 14.61 24.04 15.31 25.23 C 16.01 26.41 16.75 27.53 17.52 28.63 C 17.52 28.63 17.51 28.65 17.51 28.65 C 17.51 28.65 17.53 28.65 17.53 28.65 C 18.54 30.11 20.03 30.78 21.2 30.89 C 22.37 30.99 23.38 30.64 23.5 30.6 C 23.64 30.57 23.78 30.52 23.91 30.45 C 23.91 30.45 26.33 29.01 26.33 29.01 C 27.03 28.59 27.41 28.48 27.5 28.49 C 27.59 28.49 27.81 28.48 28.43 29.24 C 31.19 32.64 33.22 34.98 33.62 36.13 C 33.82 36.7 33.8 36.82 33.52 37.27 C 33.24 37.72 32.46 38.45 30.98 39.33 C 30.98 39.33 30.09 39.86 30.09 39.86 C 28.4 40.87 26.92 42.03 25.45 42.38 C 23.98 42.73 22.42 42.6 19.85 40.26 C 16.12 36.86 12.82 32.88 10.11 28.32 C 7.41 23.76 5.49 18.95 4.3 14.05 C 3.74 11.72 3.92 10.27 4.35 9.28 C 4.78 8.28 5.51 7.6 6.5 6.95 C 7.4 6.36 8.47 5.86 9.53 5.23 C 9.53 5.23 10.42 4.7 10.42 4.7 C 11.9 3.82 12.94 3.48 13.47 3.44 C 13.73 3.43 13.9 3.44 14.04 3.5 Z M 15.33 0.48 C 14.69 0.2 13.98 0.06 13.26 0.1 C 11.83 0.19 10.41 0.81 8.72 1.82 C 8.72 1.82 7.82 2.35 7.82 2.35 C 7.07 2.8 6.03 3.32 4.96 3.98 C 4.93 4 4.9 4 4.87 4.02 C 4.8 4.06 4.73 4.1 4.66 4.14 C 3.37 4.99 2.03 6.18 1.27 7.97 C 0.5 9.76 0.35 12.03 1.03 14.84 C 1.04 14.84 1.04 14.84 1.05 14.84 C 2.32 20.05 4.35 25.18 7.23 30.03 C 10.11 34.88 13.64 39.13 17.6 42.73 C 20.71 45.56 23.75 46.23 26.22 45.65 C 28.68 45.06 30.45 43.54 31.8 42.74 C 31.8 42.74 32.69 42.21 32.69 42.21 C 34.39 41.2 35.61 40.28 36.37 39.06 C 37.14 37.84 37.22 36.29 36.77 35.03 C 35.89 32.5 33.7 30.43 31.02 27.14 C 30.08 25.98 28.94 25.2 27.68 25.14 C 26.42 25.07 25.47 25.61 24.62 26.11 C 24.62 26.11 22.43 27.41 22.43 27.41 C 22.13 27.49 21.86 27.57 21.51 27.55 C 21.11 27.51 20.77 27.43 20.29 26.74 C 20.28 26.73 20.28 26.73 20.27 26.73 C 19.54 25.69 18.85 24.62 18.19 23.52 C 17.54 22.41 16.93 21.29 16.37 20.15 C 16.36 20.14 16.36 20.14 16.35 20.13 C 15.97 19.37 16.09 19.05 16.25 18.67 C 16.39 18.34 16.61 18.13 16.84 17.89 C 16.84 17.89 18.98 16.62 18.98 16.62 C 19.82 16.12 20.77 15.54 21.32 14.4 C 21.86 13.27 21.73 11.89 21.16 10.51 C 19.55 6.58 18.79 3.64 17 1.66 C 16.55 1.16 15.97 0.76 15.33 0.48 Z" />
</svg>