<!-- Generator: Avocode undefined - http://avocode.com -->
<svg height="18" width="17" xmlns:xlink="http://www.w3.org/1999/xlink" xmlns="http://www.w3.org/2000/svg" viewBox="0 0 17 18">
    <path fill="#ffffff" opacity="0.4" fill-rule="evenodd" d="M 8.48 11.96 C 8.48 11.96 13.67 17.57 13.67 17.57 C 14.19 18.13 14.53 18.14 15.06 17.57 C 15.06 17.57 16.1 16.44 16.1 16.44 C 16.61 15.89 16.64 15.53 16.1 14.94 C 16.1 14.94 10.61 9 10.61 9 C 10.61 9 16.1 3.06 16.1 3.06 C 16.62 2.5 16.63 2.13 16.1 1.56 C 16.1 1.56 15.06 0.43 15.06 0.43 C 14.52 -0.15 14.19 -0.13 13.67 0.43 C 13.67 0.43 8.48 6.04 8.48 6.04 C 8.48 6.04 3.29 0.43 3.29 0.43 C 2.77 -0.13 2.44 -0.15 1.9 0.43 C 1.9 0.43 0.86 1.56 0.86 1.56 C 0.33 2.12 0.34 2.5 0.86 3.06 C 0.86 3.06 6.35 9 6.35 9 C 6.35 9 0.86 14.94 0.86 14.94 C 0.31 15.53 0.34 15.89 0.86 16.44 C 0.86 16.44 1.9 17.57 1.9 17.57 C 2.43 18.14 2.76 18.13 3.29 17.57 C 3.29 17.57 8.48 11.96 8.48 11.96 Z" />
</svg>