<!-- Generator: Avocode undefined - http://avocode.com -->
<svg height="28" width="28" xmlns:xlink="http://www.w3.org/1999/xlink" xmlns="http://www.w3.org/2000/svg" viewBox="0 0 28 28">
    <path fill="#ffffff" fill-rule="evenodd" d="M 16.66 13.98 C 16.66 13.98 27.39 3.25 27.39 3.25 C 28.13 2.5 28.13 1.29 27.39 0.55 C 26.64 -0.2 25.43 -0.2 24.69 0.55 C 24.69 0.55 13.97 11.28 13.97 11.28 C 13.97 11.28 3.24 0.58 3.24 0.58 C 2.5 -0.17 1.29 -0.17 0.55 0.58 C -0.2 1.32 -0.2 2.53 0.55 3.28 C 0.55 3.28 11.27 13.98 11.27 13.98 C 11.27 13.98 0.58 24.72 0.58 24.72 C -0.17 25.46 -0.17 26.67 0.58 27.42 C 1.32 28.16 2.53 28.16 3.27 27.42 C 3.27 27.42 14 16.68 14 16.68 C 14 16.68 24.72 27.42 24.72 27.42 C 25.47 28.16 26.67 28.16 27.42 27.42 C 28.16 26.67 28.16 25.46 27.42 24.72 C 27.42 24.72 16.66 13.98 16.66 13.98 Z" />
</svg>