<!-- Generator: Avocode undefined - http://avocode.com -->
<svg height="28" width="38" xmlns:xlink="http://www.w3.org/1999/xlink" xmlns="http://www.w3.org/2000/svg" viewBox="0 0 38 28">
    <path fill="#a1a8b1" fill-rule="evenodd" d="M 34.2 24.27 C 34.2 24.27 3.8 24.27 3.8 24.27 C 3.8 24.27 3.8 5.38 3.8 5.38 C 3.8 5.38 17.81 16.39 17.81 16.39 C 18.16 16.66 18.58 16.8 19 16.8 C 19.42 16.8 19.84 16.66 20.19 16.39 C 20.19 16.39 34.2 5.38 34.2 5.38 C 34.2 5.38 34.2 24.27 34.2 24.27 Z M 30.21 3.73 C 30.21 3.73 19 12.54 19 12.54 C 19 12.54 7.79 3.73 7.79 3.73 C 7.79 3.73 30.21 3.73 30.21 3.73 Z M 38 2.39 C 38 2.39 37.99 2.38 37.99 2.38 C 37.85 1.05 36.7 0 35.31 0 C 35.31 0 2.69 0 2.69 0 C 1.3 0 0.15 1.05 0.01 2.38 C 0.01 2.38 0 2.39 0 2.39 C 0 2.39 0.01 2.4 0.01 2.4 C 0.01 2.48 0 2.56 0 2.65 C 0 2.65 0 25.35 0 25.35 C 0 26.81 1.21 28 2.69 28 C 2.69 28 35.31 28 35.31 28 C 36.79 28 38 26.81 38 25.36 C 38 25.36 38 2.65 38 2.65 C 38 2.56 38 2.48 37.99 2.4 C 37.99 2.4 38 2.39 38 2.39 Z" />
</svg>