<!-- Generator: Avocode undefined - http://avocode.com -->
<svg height="27" width="14" xmlns:xlink="http://www.w3.org/1999/xlink" xmlns="http://www.w3.org/2000/svg" viewBox="0 0 14 27">
    <path fill="#d4f3cc" fill-rule="evenodd" d="M 11.18 25.42 C 11.18 25.42 11.18 16.28 11.18 16.28 C 11.18 16.28 9.68 16.28 9.68 16.28 C 9.68 16.28 9.68 2.4 9.68 2.4 C 9.68 -0.83 14.01 -0.83 14 2.4 C 14 2.4 14 25.42 14 25.42 C 14.01 27.48 11.18 27.45 11.18 25.42 Z M 4.68 10.61 C 4.68 10.61 4.68 25.42 4.68 25.42 C 4.68 27.53 1.85 27.53 1.85 25.42 C 1.85 25.42 1.85 10.61 1.85 10.61 C 0.86 10.61 0 9.83 0 8.67 C 0 8.67 0 0.51 0 0.51 C -0.01 -0.2 1 -0.23 1.01 0.53 C 1.01 0.53 1.01 6.57 1.01 6.57 C 1.01 6.57 1.85 6.57 1.85 6.57 C 1.85 6.57 1.85 0.48 1.85 0.48 C 1.85 -0.17 2.82 -0.21 2.82 0.51 C 2.82 0.51 2.82 6.57 2.82 6.57 C 2.82 6.57 3.69 6.57 3.69 6.57 C 3.69 6.57 3.69 0.49 3.69 0.49 C 3.69 -0.19 4.64 -0.22 4.63 0.52 C 4.63 0.52 4.63 6.57 4.63 6.57 C 4.63 6.57 5.5 6.57 5.5 6.57 C 5.5 6.57 5.5 0.49 5.5 0.49 C 5.5 -0.19 6.48 -0.21 6.49 0.52 C 6.49 0.52 6.49 8.79 6.49 8.79 C 6.48 9.67 5.69 10.61 4.68 10.61 Z" />
</svg>