<!-- Generator: Avocode undefined - http://avocode.com -->
<svg height="30" width="26" xmlns:xlink="http://www.w3.org/1999/xlink" xmlns="http://www.w3.org/2000/svg" viewBox="0 0 26 30">
    <path fill="#897dcc" fill-rule="evenodd" d="M 21.36 18.75 C 21.87 18.75 22.29 18.33 22.29 17.81 C 22.29 17.29 21.87 16.88 21.36 16.88 C 21.36 16.88 4.64 16.88 4.64 16.88 C 4.13 16.88 3.71 17.29 3.71 17.81 C 3.71 18.33 4.13 18.75 4.64 18.75 C 4.64 18.75 21.36 18.75 21.36 18.75 Z M 3.71 12.19 C 3.71 12.71 4.13 13.13 4.64 13.13 C 4.64 13.13 21.36 13.13 21.36 13.13 C 21.87 13.13 22.29 12.71 22.29 12.19 C 22.29 11.67 21.87 11.25 21.36 11.25 C 21.36 11.25 4.64 11.25 4.64 11.25 C 4.13 11.25 3.71 11.67 3.71 12.19 Z M 3.71 6.56 C 3.71 7.08 4.13 7.5 4.64 7.5 C 4.64 7.5 21.36 7.5 21.36 7.5 C 21.87 7.5 22.29 7.08 22.29 6.56 C 22.29 6.04 21.87 5.63 21.36 5.63 C 21.36 5.63 4.64 5.63 4.64 5.63 C 4.13 5.63 3.71 6.04 3.71 6.56 Z M 16.72 21.56 C 16.72 21.56 16.72 30 16.72 30 C 16.72 30 1.85 30 1.85 30 C 0.83 30 0 29.16 0 28.13 C 0 28.13 0 1.88 0 1.88 C 0 0.84 0.83 0 1.85 0 C 1.85 0 24.15 0 24.15 0 C 25.17 0 26 0.84 26 1.88 C 26 1.88 26 20.63 26 20.63 C 26 20.63 17.64 20.63 17.64 20.63 C 17.13 20.63 16.72 21.04 16.72 21.56 Z M 18.57 22.5 C 18.57 22.5 26 22.5 26 22.5 C 26 22.5 18.57 30 18.57 30 C 18.57 30 18.57 22.5 18.57 22.5 Z" />
</svg>