<!-- Generator: Avocode undefined - http://avocode.com -->
<svg height="42" width="36" xmlns:xlink="http://www.w3.org/1999/xlink" xmlns="http://www.w3.org/2000/svg" viewBox="0 0 36 42">
    <path fill="#9fd092" fill-rule="evenodd" d="M 34.29 42 C 34.29 42 1.71 42 1.71 42 C 0.77 42 0 41.22 0 40.26 C 0 40.26 0 29.84 0 29.84 C 0 26.02 3.11 22.92 6.92 22.92 C 6.92 22.92 29.08 22.92 29.08 22.92 C 32.89 22.92 36 26.02 36 29.84 C 36 29.84 36 40.26 36 40.26 C 36 41.22 35.23 42 34.29 42 Z M 32.57 29.84 C 32.57 27.94 31 26.39 29.08 26.39 C 29.08 26.39 6.92 26.39 6.92 26.39 C 5 26.39 3.43 27.94 3.43 29.84 C 3.43 29.84 3.43 38.53 3.43 38.53 C 3.43 38.53 32.57 38.53 32.57 38.53 C 32.57 38.53 32.57 29.84 32.57 29.84 Z M 18 19.27 C 12.75 19.27 8.48 14.95 8.48 9.64 C 8.48 4.32 12.75 0 18 0 C 23.25 0 27.52 4.32 27.52 9.64 C 27.52 14.95 23.25 19.27 18 19.27 Z M 18 3.47 C 14.64 3.47 11.91 6.24 11.91 9.64 C 11.91 13.03 14.64 15.8 18 15.8 C 21.36 15.8 24.09 13.03 24.09 9.64 C 24.09 6.24 21.36 3.47 18 3.47 Z" />
</svg>