<!-- Generator: Avocode undefined - http://avocode.com -->
<svg height="33" width="33" xmlns:xlink="http://www.w3.org/1999/xlink" xmlns="http://www.w3.org/2000/svg" viewBox="0 0 33 33">
    <path fill="#897dcc" fill-rule="evenodd" d="M 31.18 16.16 C 31.18 16.16 30.41 16.16 30.41 16.16 C 30.41 16.16 30.97 17.67 30.97 17.67 C 31.36 18.73 31.68 20.52 31.68 21.66 C 31.68 21.66 31.68 30.59 31.68 30.59 C 31.68 31.92 30.64 33 29.37 33 C 28.1 33 27.06 31.92 27.06 30.59 C 27.06 30.59 27.06 29.22 27.06 29.22 C 27.06 29.22 5.94 29.22 5.94 29.22 C 5.94 29.22 5.94 30.59 5.94 30.59 C 5.94 31.92 4.9 33 3.63 33 C 2.36 33 1.32 31.92 1.32 30.59 C 1.32 30.59 1.32 21.66 1.32 21.66 C 1.32 20.52 1.64 18.73 2.03 17.67 C 2.03 17.67 2.59 16.16 2.59 16.16 C 2.59 16.16 1.82 16.16 1.82 16.16 C 0.82 16.16 0 15.31 0 14.27 C 0 13.23 0.82 12.38 1.82 12.38 C 1.82 12.38 3.99 12.38 3.99 12.38 C 3.99 12.38 5.56 8.11 5.56 8.11 C 5.95 7.05 7.13 5.93 8.17 5.62 C 8.17 5.62 10.89 4.81 16.5 4.81 C 22.11 4.81 24.83 5.62 24.83 5.62 C 25.87 5.93 27.05 7.05 27.44 8.11 C 27.44 8.11 29.01 12.38 29.01 12.38 C 29.01 12.38 31.18 12.38 31.18 12.38 C 32.18 12.38 33 13.23 33 14.27 C 33 15.31 32.18 16.16 31.18 16.16 Z M 3.96 21.48 C 3.96 22.53 4.77 23.38 5.77 23.38 C 6.78 23.38 7.59 22.53 7.59 21.48 C 7.59 20.44 6.78 19.59 5.77 19.59 C 4.77 19.59 3.96 20.44 3.96 21.48 Z M 27.16 14.82 C 27.16 14.82 25.31 9.58 25.31 9.58 C 25.18 9.23 24.78 8.94 24.42 8.94 C 24.42 8.94 8.58 8.94 8.58 8.94 C 8.22 8.94 7.82 9.23 7.69 9.58 C 7.69 9.58 5.84 14.82 5.84 14.82 C 5.71 15.18 5.91 15.47 6.27 15.47 C 6.27 15.47 26.73 15.47 26.73 15.47 C 27.09 15.47 27.29 15.18 27.16 14.82 Z M 27.23 19.59 C 26.22 19.59 25.41 20.44 25.41 21.48 C 25.41 22.53 26.22 23.38 27.23 23.38 C 28.23 23.38 29.04 22.53 29.04 21.48 C 29.04 20.44 28.23 19.59 27.23 19.59 Z M 20.13 3.44 C 20.13 3.44 12.87 3.44 12.87 3.44 C 12.51 3.44 12.27 3.13 12.34 2.76 C 12.34 2.76 12.74 0.67 12.74 0.67 C 12.81 0.3 13.17 0 13.53 0 C 13.53 0 19.47 0 19.47 0 C 19.83 0 20.19 0.3 20.26 0.67 C 20.26 0.67 20.66 2.76 20.66 2.76 C 20.73 3.13 20.49 3.44 20.13 3.44 Z" />
</svg>