<!-- Generator: Avocode undefined - http://avocode.com -->
<svg height="35" width="36" xmlns:xlink="http://www.w3.org/1999/xlink" xmlns="http://www.w3.org/2000/svg" viewBox="0 0 36 35">
    <path fill="#45b05e" fill-rule="evenodd" d="M 27.99 4.95 C 27.99 4.95 25.95 4.95 25.95 4.95 C 25.95 4.95 25.95 2.93 25.95 2.93 C 25.95 1.83 25.06 0.93 23.95 0.93 C 22.85 0.93 21.95 1.83 21.95 2.93 C 21.95 2.93 21.95 4.95 21.95 4.95 C 21.95 4.95 14.02 4.95 14.02 4.95 C 14.02 4.95 14.02 2.93 14.02 2.93 C 14.02 1.83 13.12 0.93 12.02 0.93 C 10.91 0.93 10.02 1.83 10.02 2.93 C 10.02 2.93 10.02 4.95 10.02 4.95 C 10.02 4.95 8 4.95 8 4.95 C 3.55 4.95 -0.01 8.53 -0.01 12.92 C -0.01 12.92 -0.01 26.97 -0.01 26.97 C -0.01 31.37 3.55 34.94 8 34.94 C 8 34.94 27.99 34.94 27.99 34.94 C 32.45 34.94 36.01 31.37 36.01 26.97 C 36.01 26.97 36.01 12.92 36.01 12.92 C 36.01 8.53 32.45 4.95 27.99 4.95 Z M 32.01 26.97 C 32.01 29.16 30.24 30.94 27.99 30.94 C 27.99 30.94 8 30.94 8 30.94 C 5.76 30.94 3.99 29.16 3.99 26.97 C 3.99 26.97 3.99 12.92 3.99 12.92 C 3.99 10.74 5.76 8.95 8 8.95 C 8 8.95 10.02 8.95 10.02 8.95 C 10.02 8.95 10.02 9.04 10.02 9.04 C 10.02 10.14 10.91 11.16 12.02 11.16 C 13.12 11.16 14.02 10.14 14.02 9.04 C 14.02 9.04 14.02 8.95 14.02 8.95 C 14.02 8.95 21.95 8.95 21.95 8.95 C 21.95 8.95 21.95 9.04 21.95 9.04 C 21.95 10.14 22.85 11.04 23.95 11.04 C 25.06 11.04 25.95 10.14 25.95 9.04 C 25.95 9.04 25.95 8.95 25.95 8.95 C 25.95 8.95 27.99 8.95 27.99 8.95 C 30.24 8.95 32.01 10.74 32.01 12.92 C 32.01 12.92 32.01 26.97 32.01 26.97 Z" />
    <path fill="#45b05e" fill-rule="evenodd" d="M 10 14.94 C 10 14.94 14 14.94 14 14.94 C 14 14.94 14 18.94 14 18.94 C 14 18.94 10 18.94 10 18.94 C 10 18.94 10 14.94 10 14.94 Z" />
    <path fill="#45b05e" fill-rule="evenodd" d="M 16 14.94 C 16 14.94 20 14.94 20 14.94 C 20 14.94 20 18.94 20 18.94 C 20 18.94 16 18.94 16 18.94 C 16 18.94 16 14.94 16 14.94 Z" />
    <path fill="#45b05e" fill-rule="evenodd" d="M 22 14.94 C 22 14.94 26 14.94 26 14.94 C 26 14.94 26 18.94 26 18.94 C 26 18.94 22 18.94 22 18.94 C 22 18.94 22 14.94 22 14.94 Z" />
    <path fill="#45b05e" fill-rule="evenodd" d="M 10 20.94 C 10 20.94 14 20.94 14 20.94 C 14 20.94 14 24.94 14 24.94 C 14 24.94 10 24.94 10 24.94 C 10 24.94 10 20.94 10 20.94 Z" />
    <path fill="#45b05e" fill-rule="evenodd" d="M 16 20.94 C 16 20.94 20 20.94 20 20.94 C 20 20.94 20 24.94 20 24.94 C 20 24.94 16 24.94 16 24.94 C 16 24.94 16 20.94 16 20.94 Z" />
    <path fill="#45b05e" fill-rule="evenodd" d="M 22 20.94 C 22 20.94 26 20.94 26 20.94 C 26 20.94 26 24.94 26 24.94 C 26 24.94 22 24.94 22 24.94 C 22 24.94 22 20.94 22 20.94 Z" />
</svg>