<!-- Generator: Avocode undefined - http://avocode.com -->
<svg height="48" width="36" xmlns:xlink="http://www.w3.org/1999/xlink" xmlns="http://www.w3.org/2000/svg" viewBox="0 0 36 48">
    <path fill="#9fd092" fill-rule="evenodd" d="M 30.57 44.94 C 30.57 44.94 29.19 44.94 29.19 44.94 C 28.33 46.78 26.43 48 24.23 48 C 24.23 48 5.45 44.93 5.45 44.93 C 2.46 44.93 0 42.6 0 39.73 C 0 39.73 0 8.32 0 8.32 C 0 5.45 2.46 3.09 5.45 3.09 C 5.45 3.09 24.24 0 24.24 0 C 26.44 0 28.33 1.16 29.19 3 C 29.19 3 30.57 3 30.57 3 C 33.57 3 36 5.45 36 8.32 C 36 8.32 36 39.73 36 39.73 C 36 42.6 33.57 44.94 30.57 44.94 Z M 26.24 5.26 C 26.24 4.31 25.34 3.54 24.32 3.54 C 24.32 3.54 5.5 6.6 5.5 6.6 C 4.48 6.6 3.66 7.37 3.66 8.32 C 3.66 8.32 3.66 39.73 3.66 39.73 C 3.66 40.68 4.51 41.45 5.53 41.45 C 5.53 41.45 24.31 44.51 24.31 44.51 C 25.33 44.51 26.24 43.74 26.24 42.79 C 26.24 42.79 26.24 5.26 26.24 5.26 Z M 32.34 8.32 C 32.34 7.37 31.6 6.68 30.57 6.68 C 30.57 6.68 29.59 6.68 29.59 6.68 C 29.59 6.68 29.59 41.57 29.59 41.57 C 29.59 41.57 30.57 41.57 30.57 41.57 C 31.6 41.57 32.34 40.68 32.34 39.73 C 32.34 39.73 32.34 8.32 32.34 8.32 Z M 21.28 27.34 C 19.44 27.34 17.99 25.56 17.99 23.28 C 17.99 21.01 19.44 19.23 21.28 19.23 C 23.13 19.23 24.57 21.01 24.57 23.28 C 24.57 25.56 23.13 27.34 21.28 27.34 Z M 21.28 21.68 C 20.94 21.68 20.43 22.32 20.43 23.28 C 20.43 24.25 20.94 24.89 21.28 24.89 C 21.62 24.89 22.13 24.25 22.13 23.28 C 22.13 22.32 21.62 21.68 21.28 21.68 Z" />
</svg>