<!-- Generator: Avocode undefined - http://avocode.com -->
<svg height="34" width="14" xmlns:xlink="http://www.w3.org/1999/xlink" xmlns="http://www.w3.org/2000/svg" viewBox="0 0 14 34">
    <path fill="#897dcc" fill-rule="evenodd" d="M 7.13 0 C 3.31 0 0.16 3.24 0.16 7.29 C 0.16 8.31 0.99 9.17 1.97 9.17 C 2.95 9.17 3.77 8.31 3.77 7.29 C 3.77 5.34 5.27 3.78 7.13 3.78 C 9 3.78 10.49 5.34 10.49 7.29 C 10.49 7.29 10.49 8.69 10.49 8.69 C 10.49 9.93 10.13 10.96 9.3 11.76 C 7.34 13.82 3.26 14.25 1.81 14.19 C 1.35 14.19 0.88 14.36 0.52 14.73 C 0.16 15.11 0 15.54 0 16.08 C 0 16.08 0 29.25 0 29.25 C 0 31.14 0.73 32.27 1.4 32.87 C 2.43 33.84 3.72 34 4.34 34 C 4.45 34 4.5 34 4.55 34 C 4.55 34 9.92 34 9.92 34 C 12.66 34 13.85 31.57 14.01 29.9 C 14.01 29.84 14.01 29.79 14.01 29.74 C 14.01 29.74 14.01 7.29 14.01 7.29 C 14.11 3.24 11.01 0 7.13 0 Z" />
</svg>