<!-- Generator: Avocode undefined - http://avocode.com -->
<svg height="16" width="16" xmlns:xlink="http://www.w3.org/1999/xlink" xmlns="http://www.w3.org/2000/svg" viewBox="0 0 16 16">
    <path fill="#b8c4c9" fill-rule="evenodd" d="M 8 0 C 8 0 10.47 5.27 10.47 5.27 C 10.47 5.27 16 6.11 16 6.11 C 16 6.11 12 10.21 12 10.21 C 12 10.21 12.94 16 12.94 16 C 12.94 16 8 13.26 8 13.26 C 8 13.26 3.05 16 3.05 16 C 3.05 16 4 10.21 4 10.21 C 4 10.21 0 6.11 0 6.11 C 0 6.11 5.53 5.27 5.53 5.27 C 5.53 5.27 8 0 8 0 Z" />
</svg>