<!-- Generator: Avocode undefined - http://avocode.com -->
<svg height="32" width="34" xmlns:xlink="http://www.w3.org/1999/xlink" xmlns="http://www.w3.org/2000/svg" viewBox="0 0 34 32">
    <path fill="#a1a8b1" fill-rule="evenodd" d="M 7.76 22.45 C 8.21 22.45 8.64 22.63 8.95 22.93 C 9.27 23.24 9.44 23.65 9.44 24.08 C 9.44 24.08 9.44 27.35 9.44 27.35 C 9.44 27.35 16.63 22.73 16.63 22.73 C 16.91 22.55 17.23 22.46 17.56 22.46 C 17.56 22.46 30.67 22.46 30.67 22.46 C 30.67 22.46 30.64 3.24 30.64 3.24 C 30.64 3.24 3.33 3.26 3.33 3.26 C 3.33 3.26 3.36 22.48 3.36 22.48 C 3.36 22.48 7.76 22.45 7.76 22.45 Z M 7.76 32 C 7.49 32 7.22 31.94 6.97 31.81 C 6.42 31.53 6.08 30.98 6.08 30.38 C 6.08 30.38 6.08 25.7 6.08 25.7 C 6.08 25.7 3.33 25.7 3.33 25.7 C 1.49 25.7 0 24.26 0 22.47 C 0 22.47 0 3.24 0 3.24 C 0 1.46 1.49 0.01 3.33 0.01 C 3.33 0.01 30.67 0.01 30.67 0.01 C 32.51 0.01 34 1.46 34 3.24 C 34 3.24 34 22.48 34 22.48 C 34 24.26 32.51 25.7 30.67 25.7 C 30.67 25.7 18.07 25.7 18.07 25.7 C 18.07 25.7 8.69 31.73 8.69 31.73 C 8.41 31.91 8.09 32 7.76 32 Z" />
</svg>