<!-- Generator: Avocode undefined - http://avocode.com -->
<svg height="15" width="18" xmlns:xlink="http://www.w3.org/1999/xlink" xmlns="http://www.w3.org/2000/svg" viewBox="0 0 18 15">
    <path fill="#7a8796" fill-rule="evenodd" d="M 17.97 11.46 C 17.94 10.35 17.15 9.22 16.14 8.85 C 16.14 8.85 16.04 8.81 16.04 8.81 C 16.28 8.16 16.42 7.48 16.42 6.85 C 16.42 4.98 15.13 3.63 13.37 3.63 C 11.6 3.63 10.31 4.98 10.31 6.85 C 10.31 7.04 10.33 7.24 10.35 7.44 C 10.36 7.51 10.38 7.58 10.4 7.64 C 10.45 7.81 10.57 8.1 10.86 8.52 C 10.8 8.52 10.73 8.54 10.67 8.56 C 10.4 8.31 10.11 8.12 9.79 8 C 9.79 8 8.31 7.44 8.31 7.44 C 8.97 6.33 9.39 4.9 9.39 3.7 C 9.39 1.38 7.84 0 5.92 0 C 4 0 2.44 1.38 2.44 3.7 C 2.44 4.9 2.86 6.33 3.52 7.44 C 3.52 7.44 2.04 8 2.04 8 C 0.98 8.4 0.08 9.68 0.05 10.85 C 0.05 10.85 0 12.87 0 12.87 C -0.03 14.04 0.87 15 2 15 C 2 15 7.92 15 7.92 15 C 7.92 15 9.83 15 9.83 15 C 9.83 15 15.9 15 15.9 15 C 16.47 15 17.01 14.77 17.4 14.34 C 17.8 13.92 18.02 13.35 18 12.76 C 18 12.76 17.97 11.46 17.97 11.46 Z M 7.92 13.33 C 7.92 13.33 2 13.33 2 13.33 C 1.86 13.33 1.77 13.26 1.72 13.21 C 1.67 13.15 1.61 13.06 1.61 12.91 C 1.61 12.91 1.66 10.9 1.66 10.9 C 1.67 10.42 2.15 9.73 2.59 9.57 C 2.59 9.57 4.07 9.02 4.07 9.02 C 4.53 8.84 4.89 8.47 5.05 7.99 C 5.21 7.52 5.15 6.99 4.9 6.56 C 4.39 5.71 4.06 4.59 4.06 3.7 C 4.06 1.82 5.48 1.67 5.92 1.67 C 6.35 1.67 7.78 1.82 7.78 3.7 C 7.78 4.59 7.45 5.71 6.94 6.56 C 6.68 6.99 6.63 7.52 6.79 7.99 C 6.94 8.47 7.31 8.84 7.76 9.02 C 7.76 9.02 9.24 9.57 9.24 9.57 C 9.68 9.73 10.16 10.42 10.17 10.9 C 10.17 10.9 10.22 12.91 10.22 12.91 C 10.23 13.06 10.16 13.15 10.11 13.21 C 10.06 13.26 9.97 13.33 9.83 13.33 C 9.83 13.33 7.92 13.33 7.92 13.33 Z M 16.25 13.18 C 16.16 13.27 16.03 13.33 15.9 13.33 C 15.9 13.33 11.8 13.33 11.8 13.33 C 11.83 13.18 11.84 13.03 11.84 12.87 C 11.84 12.87 11.79 10.85 11.79 10.85 C 11.78 10.65 11.74 10.45 11.69 10.24 C 11.69 10.24 12.24 10.24 12.24 10.24 C 12.61 10.24 12.93 9.99 13.04 9.62 C 13.14 9.26 13.01 8.86 12.7 8.65 C 12.26 8.35 11.99 7.49 11.95 7.23 C 11.93 7.1 11.93 6.97 11.93 6.85 C 11.93 5.91 12.49 5.3 13.37 5.3 C 14.24 5.3 14.8 5.91 14.8 6.85 C 14.8 7.47 14.58 8.25 14.23 8.84 C 14.1 9.05 14.07 9.31 14.15 9.55 C 14.23 9.79 14.41 9.98 14.64 10.06 C 14.64 10.06 15.6 10.42 15.6 10.42 C 15.98 10.56 16.34 11.09 16.35 11.51 C 16.35 11.51 16.39 12.81 16.39 12.81 C 16.39 12.95 16.34 13.08 16.25 13.18 Z" />
</svg>