<!-- Generator: Avocode undefined - http://avocode.com -->
<svg height="14" width="18" xmlns:xlink="http://www.w3.org/1999/xlink" xmlns="http://www.w3.org/2000/svg" viewBox="0 0 18 14">
    <path fill="#ffffff" fill-rule="evenodd" d="M 16.99 8 C 16.99 8 11.86 8 11.86 8 C 11.32 8 10.87 7.55 10.87 7 C 10.87 6.45 11.32 6 11.86 6 C 11.86 6 16.99 6 16.99 6 C 17.53 6 17.98 6.45 17.98 7 C 17.98 7.55 17.53 8 16.99 8 Z M 16.99 2 C 16.99 2 11.86 2 11.86 2 C 11.32 2 10.87 1.55 10.87 1 C 10.87 0.45 11.32 0 11.86 0 C 11.86 0 16.99 0 16.99 0 C 17.53 0 17.98 0.45 17.98 1 C 17.98 1.55 17.53 2 16.99 2 Z M 7.07 14 C 7.07 14 1.95 14 1.95 14 C 1.4 14 0.96 13.55 0.96 13 C 0.96 12.45 1.4 12 1.95 12 C 1.95 12 7.07 12 7.07 12 C 7.62 12 8.06 12.45 8.06 13 C 8.06 13.55 7.62 14 7.07 14 Z M 7.07 8 C 7.07 8 1.95 8 1.95 8 C 1.4 8 0.96 7.55 0.96 7 C 0.96 6.45 1.4 6 1.95 6 C 1.95 6 7.07 6 7.07 6 C 7.62 6 8.06 6.45 8.06 7 C 8.06 7.55 7.62 8 7.07 8 Z M 7.07 2 C 7.07 2 1.95 2 1.95 2 C 1.4 2 0.96 1.55 0.96 1 C 0.96 0.45 1.4 0 1.95 0 C 1.95 0 7.07 0 7.07 0 C 7.62 0 8.06 0.45 8.06 1 C 8.06 1.55 7.62 2 7.07 2 Z M 11.86 12 C 11.86 12 16.99 12 16.99 12 C 17.53 12 17.98 12.45 17.98 13 C 17.98 13.55 17.53 14 16.99 14 C 16.99 14 11.86 14 11.86 14 C 11.32 14 10.87 13.55 10.87 13 C 10.87 12.45 11.32 12 11.86 12 Z" />
</svg>