<!-- Generator: Avocode undefined - http://avocode.com -->
<svg height="17" width="17" xmlns:xlink="http://www.w3.org/1999/xlink" xmlns="http://www.w3.org/2000/svg" viewBox="0 0 17 17">
    <path fill="#8998a9" fill-rule="evenodd" d="M 8.5 0 C 3.8 0 0 3.8 0 8.5 C 0 13.2 3.8 17 8.5 17 C 13.2 17 17 13.2 17 8.5 C 17 3.8 13.18 0 8.5 0 Z M 8.5 0.95 C 12.67 0.95 16.05 4.33 16.05 8.5 C 16.05 12.67 12.67 16.06 8.5 16.06 C 4.33 16.06 0.95 12.67 0.95 8.5 C 0.95 4.33 4.33 0.95 8.5 0.95 M 12.94 6.41 C 12.94 6.41 7.9 11.56 7.9 11.56 C 7.78 11.67 7.61 11.75 7.42 11.75 C 7.23 11.75 7.08 11.67 6.95 11.56 C 6.95 11.56 4.1 8.65 4.1 8.65 C 3.99 8.54 3.91 8.37 3.91 8.18 C 3.91 7.8 4.21 7.5 4.57 7.5 C 4.76 7.5 4.91 7.58 5.04 7.69 C 5.04 7.69 7.42 10.13 7.42 10.13 C 7.42 10.13 12.01 5.44 12.01 5.44 C 12.13 5.33 12.3 5.25 12.48 5.25 C 12.84 5.25 13.15 5.56 13.15 5.93 C 13.13 6.12 13.05 6.29 12.94 6.41 Z" />
</svg>