<!-- Generator: Avocode undefined - http://avocode.com -->
<svg height="18" width="18" xmlns:xlink="http://www.w3.org/1999/xlink" xmlns="http://www.w3.org/2000/svg" viewBox="0 0 18 18">
    <path fill="#90989e" fill-rule="evenodd" d="M 10.71 8.99 C 10.71 8.99 17.61 2.09 17.61 2.09 C 18.09 1.61 18.09 0.83 17.61 0.35 C 17.13 -0.13 16.35 -0.13 15.87 0.35 C 15.87 0.35 8.98 7.25 8.98 7.25 C 8.98 7.25 2.08 0.37 2.08 0.37 C 1.61 -0.11 0.83 -0.11 0.35 0.37 C -0.13 0.85 -0.13 1.63 0.35 2.11 C 0.35 2.11 7.24 8.99 7.24 8.99 C 7.24 8.99 0.37 15.89 0.37 15.89 C -0.11 16.37 -0.11 17.15 0.37 17.63 C 0.85 18.1 1.63 18.1 2.1 17.63 C 2.1 17.63 9 10.72 9 10.72 C 9 10.72 15.89 17.63 15.89 17.63 C 16.37 18.1 17.15 18.1 17.63 17.63 C 18.1 17.15 18.1 16.37 17.63 15.89 C 17.63 15.89 10.71 8.99 10.71 8.99 Z" />
</svg>