<!-- Generator: Avocode undefined - http://avocode.com -->
<svg height="20" width="20" xmlns:xlink="http://www.w3.org/1999/xlink" xmlns="http://www.w3.org/2000/svg" viewBox="0 0 20 20">
    <path fill="#d4f3cc" fill-rule="evenodd" d="M 18.84 7.03 C 18.84 7.03 13.03 7.03 13.03 7.03 C 13.03 7.03 13.03 1.17 13.03 1.17 C 13.03 0.53 12.5 0 11.86 0 C 11.86 0 8.14 0 8.14 0 C 7.5 0 6.98 0.53 6.98 1.17 C 6.98 1.17 6.98 7.03 6.98 7.03 C 6.98 7.03 1.17 7.03 1.17 7.03 C 0.53 7.03 0 7.56 0 8.2 C 0 8.2 0 11.8 0 11.8 C 0 12.44 0.53 12.97 1.17 12.97 C 1.17 12.97 6.98 12.97 6.98 12.97 C 6.98 12.97 6.98 18.83 6.98 18.83 C 6.98 19.47 7.5 20 8.14 20 C 8.14 20 11.86 20 11.86 20 C 12.5 20 13.03 19.47 13.03 18.83 C 13.03 18.83 13.03 12.97 13.03 12.97 C 13.03 12.97 18.84 12.97 18.84 12.97 C 19.48 12.97 20 12.44 20 11.8 C 20 11.8 20 8.2 20 8.2 C 20 7.56 19.48 7.03 18.84 7.03" />
</svg>