<!-- Generator: Avocode undefined - http://avocode.com -->
<svg height="5" width="9" xmlns:xlink="http://www.w3.org/1999/xlink" xmlns="http://www.w3.org/2000/svg" viewBox="0 0 9 5">
    <path fill="#7a8796" fill-rule="evenodd" d="M 8.88 0.8 C 8.88 0.8 4.73 4.88 4.73 4.88 C 4.6 5.01 4.38 5.01 4.25 4.88 C 4.25 4.88 4.01 4.65 4.01 4.65 C 4.01 4.65 4.01 4.65 4.01 4.65 C 4.01 4.65 0.1 0.8 0.1 0.8 C -0.03 0.67 -0.03 0.46 0.1 0.33 C 0.1 0.33 0.34 0.1 0.34 0.1 C 0.47 -0.03 0.69 -0.03 0.82 0.1 C 0.82 0.1 4.49 3.7 4.49 3.7 C 4.49 3.7 8.16 0.1 8.16 0.1 C 8.29 -0.03 8.51 -0.03 8.64 0.1 C 8.64 0.1 8.88 0.33 8.88 0.33 C 9.01 0.46 9.01 0.67 8.88 0.8 Z" />
</svg>