<!-- Generator: Avocode undefined - http://avocode.com -->
<svg height="40" width="40" xmlns:xlink="http://www.w3.org/1999/xlink" xmlns="http://www.w3.org/2000/svg" viewBox="0 0 40 40">
    <path fill="#4c5760" fill-rule="evenodd" d="M 39.25 35.72 C 39.25 35.72 29.16 25.62 29.16 25.62 C 31.1 22.95 32.26 19.68 32.26 16.14 C 32.26 7.23 25.02 -0.01 16.13 -0.01 C 7.24 -0.01 0 7.23 0 16.14 C 0 25.04 7.24 32.28 16.13 32.28 C 19.67 32.28 22.94 31.12 25.6 29.17 C 25.6 29.17 35.7 39.28 35.7 39.28 C 36.19 39.77 36.83 40.02 37.48 40.02 C 38.12 40.02 38.76 39.77 39.25 39.28 C 40.24 38.3 40.24 36.71 39.25 35.72 Z M 5.03 16.14 C 5.03 10.01 10.01 5.02 16.13 5.02 C 22.25 5.02 27.23 10.01 27.23 16.14 C 27.23 22.26 22.25 27.25 16.13 27.25 C 10.01 27.25 5.03 22.26 5.03 16.14 Z" />
</svg>