<!-- Generator: Avocode undefined - http://avocode.com -->
<svg height="24" width="26" xmlns:xlink="http://www.w3.org/1999/xlink" xmlns="http://www.w3.org/2000/svg" viewBox="0 0 26 24">
    <path fill="#ffffff" fill-rule="evenodd" d="M 23.98 0.49 C 22.81 -0.38 21.19 -0.06 20.35 1.17 C 20.35 1.17 10.34 16.15 10.34 16.15 C 10.34 16.15 4.43 9.96 4.43 9.96 C 3.42 8.9 1.75 8.9 0.75 9.96 C -0.26 11.01 -0.26 12.76 0.75 13.81 C 0.75 13.81 8.83 22.28 8.83 22.28 C 9.34 22.81 10.01 23.07 10.68 23.07 C 10.68 23.07 10.68 23.07 10.7 23.07 C 10.7 23.07 10.9 23.07 10.95 23.07 C 11.68 23.01 12.38 22.6 12.85 21.93 C 12.85 21.93 24.65 4.29 24.65 4.29 C 25.46 3.03 25.15 1.34 23.98 0.49 Z" />
</svg>