<!-- Generator: Avocode undefined - http://avocode.com -->
<svg height="16" width="16" xmlns:xlink="http://www.w3.org/1999/xlink" xmlns="http://www.w3.org/2000/svg" viewBox="0 0 16 16">
    <path fill="#4c5761" fill-rule="evenodd" d="M 12.24 9.05 C 11.63 11.32 9.3 12.67 7.02 12.06 C 4.75 11.45 3.4 9.11 4.01 6.83 C 4.62 4.56 6.95 3.21 9.23 3.82 C 11.5 4.43 12.85 6.77 12.24 9.05 Z M 15.28 8.44 C 14.39 8.2 14.19 6.1 14.92 5.68 C 15.16 5.54 15.35 5.34 15.47 5.11 C 15.28 4.42 14.63 3.42 14.26 2.97 C 13.99 2.96 13.72 3.02 13.47 3.16 C 12.67 3.63 11.02 2.39 11.27 1.47 C 11.34 1.18 11.3 0.83 11.24 0.63 C 10.79 0.39 9.71 0.08 8.91 0 C 8.74 0.13 8.54 0.43 8.46 0.72 C 8.2 1.69 6.14 1.83 5.7 1.07 C 5.55 0.81 5.28 0.57 5.09 0.49 C 4.58 0.65 3.45 1.3 3 1.68 C 3.03 1.94 3.04 2.25 3.19 2.52 C 3.63 3.28 2.43 4.99 1.49 4.74 C 1.18 4.65 0.85 4.68 0.58 4.79 C 0.36 5.27 0.03 6.55 0 7.07 C 0.06 7.21 0.44 7.46 0.74 7.54 C 2.02 7.88 2.03 9.77 1.1 10.31 C 0.84 10.46 0.61 10.68 0.52 10.94 C 0.67 11.44 1.3 12.55 1.71 13.02 C 1.98 13.05 2.29 12.98 2.55 12.83 C 3.38 12.35 5.05 13.48 4.77 14.53 C 4.69 14.8 4.74 15.09 4.78 15.37 C 5.41 15.64 6.54 16.01 7.17 16 C 7.37 15.81 7.5 15.55 7.57 15.28 C 7.82 14.36 9.85 14.06 10.33 14.9 C 10.46 15.13 10.65 15.35 10.87 15.48 C 11.53 15.29 12.69 14.64 13.08 14.23 C 13.09 13.94 12.98 13.69 12.84 13.45 C 12.32 12.55 13.54 10.97 14.53 11.24 C 14.81 11.31 15.1 11.29 15.36 11.22 C 15.57 10.68 15.94 9.7 16 8.88 C 15.78 8.63 15.57 8.51 15.28 8.44 Z" />
</svg>