<!-- Generator: Avocode undefined - http://avocode.com -->
<svg height="66" width="74" xmlns:xlink="http://www.w3.org/1999/xlink" xmlns="http://www.w3.org/2000/svg" viewBox="0 0 74 66">
    <path fill="#988dd6" fill-rule="evenodd" d="M 12.37 77.96 C 1.21 71.52 -2.39 56.82 4.33 45.18 C 4.33 45.18 29.18 2.15 29.18 2.15 C 30.33 0.17 32.8 -0.55 34.7 0.54 C 36.6 1.64 37.21 4.13 36.06 6.12 C 36.06 6.12 11.21 49.15 11.21 49.15 C 6.77 56.83 9.15 66.53 16.51 70.78 C 23.87 75.03 33.47 72.23 37.9 64.55 C 37.9 64.55 65.09 17.49 65.09 17.49 C 66.85 14.43 65.91 10.58 62.98 8.89 C 60.51 7.46 57.28 8.4 55.78 10.99 C 55.78 10.99 28.11 58.91 28.11 58.91 C 26.96 60.89 24.49 61.61 22.59 60.51 C 20.7 59.42 20.08 56.92 21.23 54.94 C 21.23 54.94 48.9 7.02 48.9 7.02 C 52.68 0.47 60.86 -1.91 67.13 1.71 C 73.85 5.59 76.01 14.44 71.97 21.45 C 71.97 21.45 44.78 68.52 44.78 68.52 C 38.06 80.16 23.52 84.39 12.37 77.96 Z" />
</svg>