<!-- Generator: Avocode undefined - http://avocode.com -->
<svg height="36" width="19" xmlns:xlink="http://www.w3.org/1999/xlink" xmlns="http://www.w3.org/2000/svg" viewBox="0 0 19 36">
    <path fill="#897dcc" fill-rule="evenodd" d="M 15.17 33.9 C 15.17 33.9 15.17 21.73 15.17 21.73 C 15.17 21.73 13.13 21.73 13.13 21.73 C 13.13 21.73 13.13 3.24 13.13 3.24 C 13.13 -1.06 19.01 -1.06 19 3.24 C 19 3.24 19 33.9 19 33.9 C 19.01 36.64 15.17 36.59 15.17 33.9 Z M 6.34 14.17 C 6.34 14.17 6.34 33.9 6.34 33.9 C 6.34 36.71 2.52 36.71 2.51 33.9 C 2.51 33.9 2.51 14.17 2.51 14.17 C 1.17 14.17 -0.01 13.13 0 11.59 C 0 11.59 0 0.72 0 0.72 C -0.01 -0.23 1.36 -0.26 1.37 0.75 C 1.37 0.75 1.37 8.79 1.37 8.79 C 1.37 8.79 2.51 8.79 2.51 8.79 C 2.51 8.79 2.51 0.68 2.51 0.68 C 2.51 -0.19 3.83 -0.24 3.83 0.72 C 3.83 0.72 3.83 8.79 3.83 8.79 C 3.83 8.79 5 8.79 5 8.79 C 5 8.79 5 0.7 5 0.7 C 5.01 -0.22 6.29 -0.25 6.29 0.73 C 6.29 0.73 6.29 8.79 6.29 8.79 C 6.29 8.79 7.46 8.79 7.46 8.79 C 7.46 8.79 7.46 0.7 7.46 0.7 C 7.46 -0.21 8.8 -0.24 8.8 0.73 C 8.8 0.73 8.8 11.75 8.8 11.75 C 8.8 12.92 7.73 14.17 6.34 14.17 Z" />
</svg>