<!-- Generator: Avocode undefined - http://avocode.com -->
<svg height="21" width="21" xmlns:xlink="http://www.w3.org/1999/xlink" xmlns="http://www.w3.org/2000/svg" viewBox="0 0 21 21">
    <path fill="#d4f3cc" fill-rule="evenodd" d="M 19.85 10.28 C 19.85 10.28 19.35 10.28 19.35 10.28 C 19.35 10.28 19.71 11.24 19.71 11.24 C 19.96 11.92 20.16 13.06 20.16 13.78 C 20.16 13.78 20.16 19.47 20.16 19.47 C 20.16 20.31 19.5 21 18.69 21 C 17.88 21 17.22 20.31 17.22 19.47 C 17.22 19.47 17.22 18.59 17.22 18.59 C 17.22 18.59 3.78 18.59 3.78 18.59 C 3.78 18.59 3.78 19.47 3.78 19.47 C 3.78 20.31 3.12 21 2.31 21 C 1.5 21 0.84 20.31 0.84 19.47 C 0.84 19.47 0.84 13.78 0.84 13.78 C 0.84 13.06 1.04 11.92 1.29 11.24 C 1.29 11.24 1.65 10.28 1.65 10.28 C 1.65 10.28 1.16 10.28 1.16 10.28 C 0.52 10.28 0 9.74 0 9.08 C 0 8.42 0.52 7.88 1.16 7.88 C 1.16 7.88 2.54 7.88 2.54 7.88 C 2.54 7.88 3.54 5.16 3.54 5.16 C 3.79 4.49 4.54 3.78 5.2 3.58 C 5.2 3.58 6.93 3.06 10.5 3.06 C 14.07 3.06 15.8 3.58 15.8 3.58 C 16.46 3.77 17.21 4.49 17.46 5.16 C 17.46 5.16 18.46 7.88 18.46 7.88 C 18.46 7.88 19.85 7.88 19.85 7.88 C 20.48 7.88 21 8.42 21 9.08 C 21 9.74 20.48 10.28 19.85 10.28 Z M 2.52 13.67 C 2.52 14.34 3.04 14.88 3.68 14.88 C 4.31 14.88 4.83 14.34 4.83 13.67 C 4.83 13.01 4.31 12.47 3.68 12.47 C 3.04 12.47 2.52 13.01 2.52 13.67 Z M 16.11 6.1 C 16.03 5.87 15.77 5.69 15.54 5.69 C 15.54 5.69 5.46 5.69 5.46 5.69 C 5.23 5.69 4.97 5.87 4.89 6.1 C 4.89 6.1 3.72 9.43 3.72 9.43 C 3.64 9.66 3.76 9.84 3.99 9.84 C 3.99 9.84 17.01 9.84 17.01 9.84 C 17.24 9.84 17.37 9.66 17.28 9.43 C 17.28 9.43 16.11 6.1 16.11 6.1 Z M 17.32 12.47 C 16.69 12.47 16.17 13.01 16.17 13.67 C 16.17 14.34 16.69 14.88 17.32 14.88 C 17.96 14.88 18.48 14.34 18.48 13.67 C 18.48 13.01 17.96 12.47 17.32 12.47 Z M 12.81 2.19 C 12.81 2.19 8.19 2.19 8.19 2.19 C 7.96 2.19 7.81 2 7.85 1.76 C 7.85 1.76 8.11 0.43 8.11 0.43 C 8.15 0.19 8.38 0 8.61 0 C 8.61 0 12.39 0 12.39 0 C 12.62 0 12.85 0.19 12.89 0.43 C 12.89 0.43 13.15 1.76 13.15 1.76 C 13.19 2 13.04 2.19 12.81 2.19 Z" />
</svg>