<!-- Generator: Avocode undefined - http://avocode.com -->
<svg height="24" width="10" xmlns:xlink="http://www.w3.org/1999/xlink" xmlns="http://www.w3.org/2000/svg" viewBox="0 0 10 24">
    <path fill="#d4f3cc" fill-rule="evenodd" d="M 5.1 0 C 2.36 0 0.11 2.29 0.11 5.14 C 0.11 5.87 0.7 6.48 1.41 6.48 C 2.11 6.48 2.7 5.87 2.7 5.14 C 2.7 3.77 3.77 2.67 5.1 2.67 C 6.43 2.67 7.5 3.77 7.5 5.14 C 7.5 5.14 7.5 6.13 7.5 6.13 C 7.5 7.01 7.24 7.73 6.65 8.3 C 5.24 9.75 2.33 10.06 1.29 10.02 C 0.96 10.02 0.63 10.13 0.37 10.4 C 0.11 10.67 0 10.97 0 11.35 C 0 11.35 0 20.65 0 20.65 C 0 21.98 0.52 22.78 1 23.2 C 1.74 23.89 2.66 24 3.1 24 C 3.18 24 3.21 24 3.25 24 C 3.25 24 7.09 24 7.09 24 C 9.05 24 9.9 22.29 10.01 21.11 C 10.01 21.07 10.01 21.03 10.01 20.99 C 10.01 20.99 10.01 5.14 10.01 5.14 C 10.08 2.29 7.87 0 5.1 0 Z" />
</svg>