<?xml version="1.0" encoding="utf-8"?>
<!-- Generator: Adobe Illustrator 16.0.0, SVG Export Plug-In . SVG Version: 6.00 Build 0)  -->
<!DOCTYPE svg PUBLIC "-//W3C//DTD SVG 1.1//EN" "http://www.w3.org/Graphics/SVG/1.1/DTD/svg11.dtd">
<svg version="1.1" xmlns="http://www.w3.org/2000/svg" xmlns:xlink="http://www.w3.org/1999/xlink" x="0px" y="0px" width="64.3px"
	 height="122px" viewBox="0 0 64.3 122" style="enable-background:new 0 0 64.3 122;" xml:space="preserve">
<style type="text/css">
<![CDATA[
	.st0{fill:#2EB773;}
	.st1{display:none;}
]]>
</style>
<g id="Layer_1" class="st1">
</g>
<g id="Layer_2">
	<path class="st0" d="M32.1,122C14.4,122,0,107.6,0,89.8V25.6c0-3.3,2.7-6,6-6s6,2.7,6,6v64.2C12,101,21,110,32.1,110
		s20.1-9,20.1-20.1V19.6c0-4.2-3.4-7.6-7.6-7.6c-3.5,0-6.3,2.8-6.3,6.4v71.5c0,3.3-2.7,6-6,6c-3.3,0-6-2.7-6-6V18.4
		C26.3,8.2,34.6,0,44.7,0c10.8,0,19.6,8.8,19.6,19.6v70.2C64.3,107.6,49.9,122,32.1,122"/>
</g>
</svg>
